<?xml version="1.0" encoding="UTF-8" standalone="no"?>
<!DOCTYPE svg PUBLIC "-//W3C//DTD SVG 1.1//EN"
 "http://www.w3.org/Graphics/SVG/1.1/DTD/svg11.dtd">
<!-- Generated by graphviz version 2.38.0 (20140413.2041)
 -->
<!-- Title: %3 Pages: 1 -->
<svg width="265pt" height="332pt"
 viewBox="0.00 0.00 264.99 332.00" xmlns="http://www.w3.org/2000/svg" xmlns:xlink="http://www.w3.org/1999/xlink">
<g id="graph0" class="graph" transform="scale(1 1) rotate(0) translate(4 328)">
<title>%3</title>
<polygon fill="white" stroke="none" points="-4,4 -4,-328 260.994,-328 260.994,4 -4,4"/>
<!-- outlook -->
<g id="node1" class="node"><title>outlook</title>
<ellipse fill="none" stroke="black" cx="160.547" cy="-306" rx="45.4919" ry="18"/>
<text text-anchor="middle" x="160.547" y="-302.3" font-family="Times,serif" font-size="14.00">outlook</text>
</g>
<!-- sunny -->
<g id="node2" class="node"><title>sunny</title>
<ellipse fill="none" stroke="black" cx="84.5473" cy="-234" rx="38.1938" ry="18"/>
<text text-anchor="middle" x="84.5473" y="-230.3" font-family="Times,serif" font-size="14.00">sunny</text>
</g>
<!-- outlook&#45;&gt;sunny -->
<g id="edge1" class="edge"><title>outlook&#45;&gt;sunny</title>
<path fill="none" stroke="black" d="M143.302,-289.116C133.054,-279.677 119.9,-267.562 108.638,-257.189"/>
<polygon fill="black" stroke="black" points="110.929,-254.541 101.202,-250.34 106.187,-259.689 110.929,-254.541"/>
</g>
<!-- overcast -->
<g id="node3" class="node"><title>overcast</title>
<ellipse fill="none" stroke="black" cx="171.547" cy="-162" rx="50.8918" ry="18"/>
<text text-anchor="middle" x="171.547" y="-158.3" font-family="Times,serif" font-size="14.00">overcast</text>
</g>
<!-- outlook&#45;&gt;overcast -->
<g id="edge2" class="edge"><title>outlook&#45;&gt;overcast</title>
<path fill="none" stroke="black" d="M161.874,-287.871C163.749,-263.67 167.193,-219.211 169.425,-190.393"/>
<polygon fill="black" stroke="black" points="172.933,-190.43 170.216,-180.189 165.954,-189.889 172.933,-190.43"/>
</g>
<!-- rainy -->
<g id="node4" class="node"><title>rainy</title>
<ellipse fill="none" stroke="black" cx="222.547" cy="-234" rx="34.394" ry="18"/>
<text text-anchor="middle" x="222.547" y="-230.3" font-family="Times,serif" font-size="14.00">rainy</text>
</g>
<!-- outlook&#45;&gt;rainy -->
<g id="edge3" class="edge"><title>outlook&#45;&gt;rainy</title>
<path fill="none" stroke="black" d="M174.927,-288.765C182.944,-279.714 193.065,-268.286 201.913,-258.296"/>
<polygon fill="black" stroke="black" points="204.662,-260.472 208.672,-250.666 199.421,-255.831 204.662,-260.472"/>
</g>
<!-- windy -->
<g id="node6" class="node"><title>windy</title>
<ellipse fill="none" stroke="black" cx="64.5473" cy="-162" rx="38.1938" ry="18"/>
<text text-anchor="middle" x="64.5473" y="-158.3" font-family="Times,serif" font-size="14.00">windy</text>
</g>
<!-- sunny&#45;&gt;windy -->
<g id="edge5" class="edge"><title>sunny&#45;&gt;windy</title>
<path fill="none" stroke="black" d="M79.7058,-216.055C77.479,-208.261 74.7821,-198.822 72.2841,-190.079"/>
<polygon fill="black" stroke="black" points="75.5957,-188.929 69.4831,-180.275 68.865,-190.852 75.5957,-188.929"/>
</g>
<!-- yes -->
<g id="node5" class="node"><title>yes</title>
<ellipse fill="none" stroke="black" cx="141.547" cy="-18" rx="27" ry="18"/>
<text text-anchor="middle" x="141.547" y="-14.3" font-family="Times,serif" font-size="14.00">yes</text>
</g>
<!-- overcast&#45;&gt;yes -->
<g id="edge4" class="edge"><title>overcast&#45;&gt;yes</title>
<path fill="none" stroke="black" d="M167.929,-143.871C162.793,-119.564 153.34,-74.8187 147.254,-46.0132"/>
<polygon fill="black" stroke="black" points="150.67,-45.2498 145.179,-36.1893 143.822,-46.6968 150.67,-45.2498"/>
</g>
<!-- false -->
<g id="node7" class="node"><title>false</title>
<ellipse fill="none" stroke="black" cx="111.547" cy="-90" rx="32.4942" ry="18"/>
<text text-anchor="middle" x="111.547" y="-86.3" font-family="Times,serif" font-size="14.00">false</text>
</g>
<!-- windy&#45;&gt;false -->
<g id="edge6" class="edge"><title>windy&#45;&gt;false</title>
<path fill="none" stroke="black" d="M75.6856,-144.411C81.4218,-135.868 88.5317,-125.278 94.9043,-115.787"/>
<polygon fill="black" stroke="black" points="97.8203,-117.723 100.489,-107.47 92.0087,-113.821 97.8203,-117.723"/>
</g>
<!-- true -->
<g id="node8" class="node"><title>true</title>
<ellipse fill="none" stroke="black" cx="30.5473" cy="-90" rx="30.5947" ry="18"/>
<text text-anchor="middle" x="30.5473" y="-86.3" font-family="Times,serif" font-size="14.00">true</text>
</g>
<!-- windy&#45;&gt;true -->
<g id="edge7" class="edge"><title>windy&#45;&gt;true</title>
<path fill="none" stroke="black" d="M56.3168,-144.055C52.3494,-135.887 47.5043,-125.912 43.0906,-116.824"/>
<polygon fill="black" stroke="black" points="46.2193,-115.255 38.7019,-107.789 39.9228,-118.313 46.2193,-115.255"/>
</g>
<!-- false&#45;&gt;yes -->
<g id="edge8" class="edge"><title>false&#45;&gt;yes</title>
<path fill="none" stroke="black" d="M118.657,-72.411C122.206,-64.1292 126.579,-53.9249 130.549,-44.662"/>
<polygon fill="black" stroke="black" points="133.766,-46.0401 134.489,-35.4699 127.332,-43.2827 133.766,-46.0401"/>
</g>
<!-- no -->
<g id="node9" class="node"><title>no</title>
<ellipse fill="none" stroke="black" cx="30.5473" cy="-18" rx="27" ry="18"/>
<text text-anchor="middle" x="30.5473" y="-14.3" font-family="Times,serif" font-size="14.00">no</text>
</g>
<!-- true&#45;&gt;no -->
<g id="edge9" class="edge"><title>true&#45;&gt;no</title>
<path fill="none" stroke="black" d="M30.5473,-71.6966C30.5473,-63.9827 30.5473,-54.7125 30.5473,-46.1124"/>
<polygon fill="black" stroke="black" points="34.0474,-46.1043 30.5473,-36.1043 27.0474,-46.1044 34.0474,-46.1043"/>
</g>
</g>
</svg>
