<?xml version="1.0" encoding="UTF-8" standalone="no"?>
<!DOCTYPE svg PUBLIC "-//W3C//DTD SVG 1.1//EN"
 "http://www.w3.org/Graphics/SVG/1.1/DTD/svg11.dtd">
<!-- Generated by graphviz version 2.38.0 (20140413.2041)
 -->
<!-- Title: %3 Pages: 1 -->
<svg width="192pt" height="218pt"
 viewBox="0.00 0.00 192.00 218.00" xmlns="http://www.w3.org/2000/svg" xmlns:xlink="http://www.w3.org/1999/xlink">
<g id="graph0" class="graph" transform="scale(1 1) rotate(0) translate(4 214)">
<title>%3</title>
<polygon fill="white" stroke="none" points="-4,4 -4,-214 188,-214 188,4 -4,4"/>
<!-- x &lt; 0.3? -->
<g id="node1" class="node"><title>x &lt; 0.3?</title>
<ellipse fill="none" stroke="black" cx="61" cy="-192" rx="49.2915" ry="18"/>
<text text-anchor="middle" x="61" y="-188.3" font-family="Times,serif" font-size="14.00">x &lt; 0.3?</text>
</g>
<!-- ? -->
<g id="node2" class="node"><title>?</title>
<ellipse fill="none" stroke="black" cx="27" cy="-105" rx="27" ry="18"/>
<text text-anchor="middle" x="27" y="-101.3" font-family="Times,serif" font-size="14.00">?</text>
</g>
<!-- x &lt; 0.3?&#45;&gt;? -->
<g id="edge1" class="edge"><title>x &lt; 0.3?&#45;&gt;?</title>
<path fill="none" stroke="black" d="M54.1196,-173.799C49.3104,-161.776 42.8024,-145.506 37.3672,-131.918"/>
<polygon fill="black" stroke="black" points="40.6024,-130.582 33.6388,-122.597 34.1031,-133.182 40.6024,-130.582"/>
<text text-anchor="middle" x="58" y="-144.8" font-family="Times,serif" font-size="14.00">No</text>
</g>
<!-- x &lt; 0.6? -->
<g id="node3" class="node"><title>x &lt; 0.6?</title>
<ellipse fill="none" stroke="black" cx="121" cy="-105" rx="49.2915" ry="18"/>
<text text-anchor="middle" x="121" y="-101.3" font-family="Times,serif" font-size="14.00">x &lt; 0.6?</text>
</g>
<!-- x &lt; 0.3?&#45;&gt;x &lt; 0.6? -->
<g id="edge2" class="edge"><title>x &lt; 0.3?&#45;&gt;x &lt; 0.6?</title>
<path fill="none" stroke="black" d="M72.8541,-174.207C81.565,-161.866 93.5454,-144.894 103.376,-130.967"/>
<polygon fill="black" stroke="black" points="106.263,-132.946 109.171,-122.758 100.544,-128.91 106.263,-132.946"/>
<text text-anchor="middle" x="106.5" y="-144.8" font-family="Times,serif" font-size="14.00">Yes</text>
</g>
<!-- ?  -->
<g id="node4" class="node"><title>? </title>
<ellipse fill="none" stroke="black" cx="85" cy="-18" rx="27" ry="18"/>
<text text-anchor="middle" x="85" y="-14.3" font-family="Times,serif" font-size="14.00">? </text>
</g>
<!-- x &lt; 0.6?&#45;&gt;?  -->
<g id="edge3" class="edge"><title>x &lt; 0.6?&#45;&gt;? </title>
<path fill="none" stroke="black" d="M113.715,-86.799C108.623,-74.776 101.732,-58.5061 95.9771,-44.9181"/>
<polygon fill="black" stroke="black" points="99.1522,-43.4401 92.0293,-35.597 92.7064,-46.1701 99.1522,-43.4401"/>
<text text-anchor="middle" x="116" y="-57.8" font-family="Times,serif" font-size="14.00">No</text>
</g>
<!-- ? &#160; -->
<g id="node5" class="node"><title>? &#160;</title>
<ellipse fill="none" stroke="black" cx="157" cy="-18" rx="27" ry="18"/>
<text text-anchor="middle" x="157" y="-14.3" font-family="Times,serif" font-size="14.00">? &#160;</text>
</g>
<!-- x &lt; 0.6?&#45;&gt;? &#160; -->
<g id="edge4" class="edge"><title>x &lt; 0.6?&#45;&gt;? &#160;</title>
<path fill="none" stroke="black" d="M128.285,-86.799C133.377,-74.776 140.268,-58.5061 146.023,-44.9181"/>
<polygon fill="black" stroke="black" points="149.294,-46.1701 149.971,-35.597 142.848,-43.4401 149.294,-46.1701"/>
<text text-anchor="middle" x="153.5" y="-57.8" font-family="Times,serif" font-size="14.00">Yes</text>
</g>
</g>
</svg>
