<?xml version="1.0" encoding="UTF-8" standalone="no"?>
<!DOCTYPE svg PUBLIC "-//W3C//DTD SVG 1.1//EN"
 "http://www.w3.org/Graphics/SVG/1.1/DTD/svg11.dtd">
<!-- Generated by graphviz version 2.38.0 (20140413.2041)
 -->
<!-- Title: %3 Pages: 1 -->
<svg width="196pt" height="166pt"
 viewBox="0.00 0.00 196.49 166.48" xmlns="http://www.w3.org/2000/svg" xmlns:xlink="http://www.w3.org/1999/xlink">
<g id="graph0" class="graph" transform="scale(1 1) rotate(0) translate(4 162.48)">
<title>%3</title>
<polygon fill="white" stroke="none" points="-4,4 -4,-162.48 192.494,-162.48 192.494,4 -4,4"/>
<!-- x &gt; 4?
[15, 15] -->
<g id="node1" class="node"><title>x &gt; 4?
[15, 15]</title>
<ellipse fill="none" stroke="black" cx="95.5477" cy="-131.61" rx="50.8235" ry="26.7407"/>
<text text-anchor="middle" x="95.5477" y="-135.41" font-family="Times,serif" font-size="14.00">x &gt; 4?</text>
<text text-anchor="middle" x="95.5477" y="-120.41" font-family="Times,serif" font-size="14.00">[15, 15]</text>
</g>
<!-- blue
[11, 0] -->
<g id="node2" class="node"><title>blue
[11, 0]</title>
<ellipse fill="none" stroke="black" cx="44.5477" cy="-26.8701" rx="44.5955" ry="26.7407"/>
<text text-anchor="middle" x="44.5477" y="-30.6701" font-family="Times,serif" font-size="14.00">blue</text>
<text text-anchor="middle" x="44.5477" y="-15.6701" font-family="Times,serif" font-size="14.00">[11, 0]</text>
</g>
<!-- x &gt; 4?
[15, 15]&#45;&gt;blue
[11, 0] -->
<g id="edge1" class="edge"><title>x &gt; 4?
[15, 15]&#45;&gt;blue
[11, 0]</title>
<path fill="none" stroke="black" d="M83.0717,-105.477C76.5403,-92.3195 68.4507,-76.0228 61.3732,-61.7651"/>
<polygon fill="black" stroke="black" points="64.4763,-60.1446 56.8949,-52.7436 58.2063,-63.257 64.4763,-60.1446"/>
<text text-anchor="middle" x="84.5477" y="-75.5401" font-family="Times,serif" font-size="14.00">No</text>
</g>
<!-- [4, 15] -->
<g id="node3" class="node"><title>[4, 15]</title>
<ellipse fill="none" stroke="black" cx="147.548" cy="-26.8701" rx="40.8928" ry="18"/>
<text text-anchor="middle" x="147.548" y="-23.1701" font-family="Times,serif" font-size="14.00">[4, 15]</text>
</g>
<!-- x &gt; 4?
[15, 15]&#45;&gt;[4, 15] -->
<g id="edge2" class="edge"><title>x &gt; 4?
[15, 15]&#45;&gt;[4, 15]</title>
<path fill="none" stroke="black" d="M108.268,-105.477C116.186,-89.8328 126.351,-69.7507 134.356,-53.9346"/>
<polygon fill="black" stroke="black" points="137.628,-55.2188 139.021,-44.716 131.383,-52.0577 137.628,-55.2188"/>
<text text-anchor="middle" x="137.048" y="-75.5401" font-family="Times,serif" font-size="14.00">Yes</text>
</g>
</g>
</svg>
