<?xml version="1.0" encoding="UTF-8" standalone="no"?>
<!DOCTYPE svg PUBLIC "-//W3C//DTD SVG 1.1//EN"
 "http://www.w3.org/Graphics/SVG/1.1/DTD/svg11.dtd">
<!-- Generated by graphviz version 2.38.0 (20140413.2041)
 -->
<!-- Title: %3 Pages: 1 -->
<svg width="318pt" height="585pt"
 viewBox="0.00 0.00 318.22 585.44" xmlns="http://www.w3.org/2000/svg" xmlns:xlink="http://www.w3.org/1999/xlink">
<g id="graph0" class="graph" transform="scale(1 1) rotate(0) translate(4 581.441)">
<title>%3</title>
<polygon fill="white" stroke="none" points="-4,4 -4,-581.441 314.217,-581.441 314.217,4 -4,4"/>
<!-- x &gt; 4?
[15, 15] -->
<g id="node1" class="node"><title>x &gt; 4?
[15, 15]</title>
<ellipse fill="none" stroke="black" cx="82.5477" cy="-550.571" rx="50.8235" ry="26.7407"/>
<text text-anchor="middle" x="82.5477" y="-554.371" font-family="Times,serif" font-size="14.00">x &gt; 4?</text>
<text text-anchor="middle" x="82.5477" y="-539.371" font-family="Times,serif" font-size="14.00">[15, 15]</text>
</g>
<!-- blue
[11, 0] -->
<g id="node2" class="node"><title>blue
[11, 0]</title>
<ellipse fill="none" stroke="black" cx="44.5477" cy="-445.831" rx="44.5955" ry="26.7407"/>
<text text-anchor="middle" x="44.5477" y="-449.631" font-family="Times,serif" font-size="14.00">blue</text>
<text text-anchor="middle" x="44.5477" y="-434.631" font-family="Times,serif" font-size="14.00">[11, 0]</text>
</g>
<!-- x &gt; 4?
[15, 15]&#45;&gt;blue
[11, 0] -->
<g id="edge1" class="edge"><title>x &gt; 4?
[15, 15]&#45;&gt;blue
[11, 0]</title>
<path fill="none" stroke="black" d="M73.0567,-523.91C68.3513,-511.188 62.5976,-495.632 57.4944,-481.834"/>
<polygon fill="black" stroke="black" points="60.6695,-480.329 53.9177,-472.164 54.1041,-482.757 60.6695,-480.329"/>
<text text-anchor="middle" x="77.5477" y="-494.501" font-family="Times,serif" font-size="14.00">No</text>
</g>
<!-- x &gt; 8?
[4, 15] -->
<g id="node3" class="node"><title>x &gt; 8?
[4, 15]</title>
<ellipse fill="none" stroke="black" cx="151.548" cy="-445.831" rx="44.5955" ry="26.7407"/>
<text text-anchor="middle" x="151.548" y="-449.631" font-family="Times,serif" font-size="14.00">x &gt; 8?</text>
<text text-anchor="middle" x="151.548" y="-434.631" font-family="Times,serif" font-size="14.00">[4, 15]</text>
</g>
<!-- x &gt; 4?
[15, 15]&#45;&gt;x &gt; 8?
[4, 15] -->
<g id="edge2" class="edge"><title>x &gt; 4?
[15, 15]&#45;&gt;x &gt; 8?
[4, 15]</title>
<path fill="none" stroke="black" d="M99.0749,-524.962C108.274,-511.265 119.837,-494.047 129.766,-479.263"/>
<polygon fill="black" stroke="black" points="132.724,-481.137 135.393,-470.884 126.913,-477.234 132.724,-481.137"/>
<text text-anchor="middle" x="134.048" y="-494.501" font-family="Times,serif" font-size="14.00">Yes</text>
</g>
<!-- y &gt; 2?
[4, 4] -->
<g id="node4" class="node"><title>y &gt; 2?
[4, 4]</title>
<ellipse fill="none" stroke="black" cx="80.5477" cy="-341.09" rx="43.6818" ry="26.7407"/>
<text text-anchor="middle" x="80.5477" y="-344.89" font-family="Times,serif" font-size="14.00">y &gt; 2?</text>
<text text-anchor="middle" x="80.5477" y="-329.89" font-family="Times,serif" font-size="14.00">[4, 4]</text>
</g>
<!-- x &gt; 8?
[4, 15]&#45;&gt;y &gt; 2?
[4, 4] -->
<g id="edge3" class="edge"><title>x &gt; 8?
[4, 15]&#45;&gt;y &gt; 2?
[4, 4]</title>
<path fill="none" stroke="black" d="M134.901,-420.743C125.376,-406.959 113.3,-389.485 102.951,-374.509"/>
<polygon fill="black" stroke="black" points="105.654,-372.264 97.0898,-366.027 99.8957,-376.244 105.654,-372.264"/>
<text text-anchor="middle" x="131.548" y="-389.76" font-family="Times,serif" font-size="14.00">No</text>
</g>
<!-- orange
[0, 11] -->
<g id="node5" class="node"><title>orange
[0, 11]</title>
<ellipse fill="none" stroke="black" cx="189.548" cy="-341.09" rx="46.8387" ry="26.7407"/>
<text text-anchor="middle" x="189.548" y="-344.89" font-family="Times,serif" font-size="14.00">orange</text>
<text text-anchor="middle" x="189.548" y="-329.89" font-family="Times,serif" font-size="14.00">[0, 11]</text>
</g>
<!-- x &gt; 8?
[4, 15]&#45;&gt;orange
[0, 11] -->
<g id="edge4" class="edge"><title>x &gt; 8?
[4, 15]&#45;&gt;orange
[0, 11]</title>
<path fill="none" stroke="black" d="M160.941,-419.434C165.645,-406.715 171.416,-391.113 176.539,-377.261"/>
<polygon fill="black" stroke="black" points="179.944,-378.144 180.131,-367.551 173.379,-375.716 179.944,-378.144"/>
<text text-anchor="middle" x="185.048" y="-389.76" font-family="Times,serif" font-size="14.00">Yes</text>
</g>
<!-- blue
[3, 0] -->
<g id="node6" class="node"><title>blue
[3, 0]</title>
<ellipse fill="none" stroke="black" cx="58.5477" cy="-236.35" rx="38.3684" ry="26.7407"/>
<text text-anchor="middle" x="58.5477" y="-240.15" font-family="Times,serif" font-size="14.00">blue</text>
<text text-anchor="middle" x="58.5477" y="-225.15" font-family="Times,serif" font-size="14.00">[3, 0]</text>
</g>
<!-- y &gt; 2?
[4, 4]&#45;&gt;blue
[3, 0] -->
<g id="edge5" class="edge"><title>y &gt; 2?
[4, 4]&#45;&gt;blue
[3, 0]</title>
<path fill="none" stroke="black" d="M75.0529,-314.43C72.3755,-301.926 69.1117,-286.684 66.1955,-273.066"/>
<polygon fill="black" stroke="black" points="69.5651,-272.085 64.0487,-263.04 62.7202,-273.551 69.5651,-272.085"/>
<text text-anchor="middle" x="82.5477" y="-285.02" font-family="Times,serif" font-size="14.00">No</text>
</g>
<!-- x &gt; 6?
[1, 4] -->
<g id="node7" class="node"><title>x &gt; 6?
[1, 4]</title>
<ellipse fill="none" stroke="black" cx="158.548" cy="-236.35" rx="43.6818" ry="26.7407"/>
<text text-anchor="middle" x="158.548" y="-240.15" font-family="Times,serif" font-size="14.00">x &gt; 6?</text>
<text text-anchor="middle" x="158.548" y="-225.15" font-family="Times,serif" font-size="14.00">[1, 4]</text>
</g>
<!-- y &gt; 2?
[4, 4]&#45;&gt;x &gt; 6?
[1, 4] -->
<g id="edge6" class="edge"><title>y &gt; 2?
[4, 4]&#45;&gt;x &gt; 6?
[1, 4]</title>
<path fill="none" stroke="black" d="M98.4425,-316.52C109.068,-302.524 122.685,-284.588 134.271,-269.328"/>
<polygon fill="black" stroke="black" points="137.207,-271.248 140.466,-261.167 131.632,-267.015 137.207,-271.248"/>
<text text-anchor="middle" x="137.048" y="-285.02" font-family="Times,serif" font-size="14.00">Yes</text>
</g>
<!-- orange
[0, 3] -->
<g id="node8" class="node"><title>orange
[0, 3]</title>
<ellipse fill="none" stroke="black" cx="103.548" cy="-131.61" rx="46.8387" ry="26.7407"/>
<text text-anchor="middle" x="103.548" y="-135.41" font-family="Times,serif" font-size="14.00">orange</text>
<text text-anchor="middle" x="103.548" y="-120.41" font-family="Times,serif" font-size="14.00">[0, 3]</text>
</g>
<!-- x &gt; 6?
[1, 4]&#45;&gt;orange
[0, 3] -->
<g id="edge7" class="edge"><title>x &gt; 6?
[1, 4]&#45;&gt;orange
[0, 3]</title>
<path fill="none" stroke="black" d="M145.234,-210.48C138.192,-197.326 129.442,-180.981 121.779,-166.667"/>
<polygon fill="black" stroke="black" points="124.735,-164.772 116.93,-157.608 118.564,-168.076 124.735,-164.772"/>
<text text-anchor="middle" x="144.548" y="-180.28" font-family="Times,serif" font-size="14.00">No</text>
</g>
<!-- y &gt; 6?
[1, 1] -->
<g id="node9" class="node"><title>y &gt; 6?
[1, 1]</title>
<ellipse fill="none" stroke="black" cx="212.548" cy="-131.61" rx="43.6818" ry="26.7407"/>
<text text-anchor="middle" x="212.548" y="-135.41" font-family="Times,serif" font-size="14.00">y &gt; 6?</text>
<text text-anchor="middle" x="212.548" y="-120.41" font-family="Times,serif" font-size="14.00">[1, 1]</text>
</g>
<!-- x &gt; 6?
[1, 4]&#45;&gt;y &gt; 6?
[1, 1] -->
<g id="edge8" class="edge"><title>x &gt; 6?
[1, 4]&#45;&gt;y &gt; 6?
[1, 1]</title>
<path fill="none" stroke="black" d="M171.62,-210.48C178.533,-197.326 187.124,-180.981 194.648,-166.667"/>
<polygon fill="black" stroke="black" points="197.855,-168.088 199.409,-157.608 191.658,-164.831 197.855,-168.088"/>
<text text-anchor="middle" x="201.048" y="-180.28" font-family="Times,serif" font-size="14.00">Yes</text>
</g>
<!-- blue
[1, 0] -->
<g id="node10" class="node"><title>blue
[1, 0]</title>
<ellipse fill="none" stroke="black" cx="160.548" cy="-26.8701" rx="38.3684" ry="26.7407"/>
<text text-anchor="middle" x="160.548" y="-30.6701" font-family="Times,serif" font-size="14.00">blue</text>
<text text-anchor="middle" x="160.548" y="-15.6701" font-family="Times,serif" font-size="14.00">[1, 0]</text>
</g>
<!-- y &gt; 6?
[1, 1]&#45;&gt;blue
[1, 0] -->
<g id="edge9" class="edge"><title>y &gt; 6?
[1, 1]&#45;&gt;blue
[1, 0]</title>
<path fill="none" stroke="black" d="M199.96,-105.74C193.253,-92.4889 184.907,-75.9987 177.624,-61.6091"/>
<polygon fill="black" stroke="black" points="180.658,-59.8533 173.02,-52.5115 174.413,-63.0144 180.658,-59.8533"/>
<text text-anchor="middle" x="200.548" y="-75.5401" font-family="Times,serif" font-size="14.00">No</text>
</g>
<!-- orange
[0, 1] -->
<g id="node11" class="node"><title>orange
[0, 1]</title>
<ellipse fill="none" stroke="black" cx="263.548" cy="-26.8701" rx="46.8387" ry="26.7407"/>
<text text-anchor="middle" x="263.548" y="-30.6701" font-family="Times,serif" font-size="14.00">orange</text>
<text text-anchor="middle" x="263.548" y="-15.6701" font-family="Times,serif" font-size="14.00">[0, 1]</text>
</g>
<!-- y &gt; 6?
[1, 1]&#45;&gt;orange
[0, 1] -->
<g id="edge10" class="edge"><title>y &gt; 6?
[1, 1]&#45;&gt;orange
[0, 1]</title>
<path fill="none" stroke="black" d="M224.893,-105.74C231.423,-92.5863 239.536,-76.2411 246.642,-61.9269"/>
<polygon fill="black" stroke="black" points="249.828,-63.381 251.139,-52.8676 243.558,-60.2686 249.828,-63.381"/>
<text text-anchor="middle" x="253.048" y="-75.5401" font-family="Times,serif" font-size="14.00">Yes</text>
</g>
</g>
</svg>
