<?xml version="1.0" encoding="UTF-8" standalone="no"?>
<!DOCTYPE svg PUBLIC "-//W3C//DTD SVG 1.1//EN"
 "http://www.w3.org/Graphics/SVG/1.1/DTD/svg11.dtd">
<!-- Generated by graphviz version 2.38.0 (20140413.2041)
 -->
<!-- Title: %3 Pages: 1 -->
<svg width="376pt" height="332pt"
 viewBox="0.00 0.00 375.74 332.00" xmlns="http://www.w3.org/2000/svg" xmlns:xlink="http://www.w3.org/1999/xlink">
<g id="graph0" class="graph" transform="scale(1 1) rotate(0) translate(4 328)">
<title>%3</title>
<polygon fill="white" stroke="none" points="-4,4 -4,-328 371.745,-328 371.745,4 -4,4"/>
<!-- outlook -->
<g id="node1" class="node"><title>outlook</title>
<ellipse fill="none" stroke="black" cx="171.547" cy="-306" rx="45.4919" ry="18"/>
<text text-anchor="middle" x="171.547" y="-302.3" font-family="Times,serif" font-size="14.00">outlook</text>
</g>
<!-- sunny -->
<g id="node2" class="node"><title>sunny</title>
<ellipse fill="none" stroke="black" cx="85.5473" cy="-234" rx="38.1938" ry="18"/>
<text text-anchor="middle" x="85.5473" y="-230.3" font-family="Times,serif" font-size="14.00">sunny</text>
</g>
<!-- outlook&#45;&gt;sunny -->
<g id="edge1" class="edge"><title>outlook&#45;&gt;sunny</title>
<path fill="none" stroke="black" d="M152.461,-289.465C140.495,-279.725 124.906,-267.036 111.786,-256.357"/>
<polygon fill="black" stroke="black" points="113.955,-253.61 103.99,-250.011 109.536,-259.039 113.955,-253.61"/>
</g>
<!-- overcast -->
<g id="node3" class="node"><title>overcast</title>
<ellipse fill="none" stroke="black" cx="171.547" cy="-162" rx="50.8918" ry="18"/>
<text text-anchor="middle" x="171.547" y="-158.3" font-family="Times,serif" font-size="14.00">overcast</text>
</g>
<!-- outlook&#45;&gt;overcast -->
<g id="edge2" class="edge"><title>outlook&#45;&gt;overcast</title>
<path fill="none" stroke="black" d="M171.547,-287.871C171.547,-263.67 171.547,-219.211 171.547,-190.393"/>
<polygon fill="black" stroke="black" points="175.047,-190.189 171.547,-180.189 168.047,-190.189 175.047,-190.189"/>
</g>
<!-- rainy -->
<g id="node4" class="node"><title>rainy</title>
<ellipse fill="none" stroke="black" cx="262.547" cy="-234" rx="34.394" ry="18"/>
<text text-anchor="middle" x="262.547" y="-230.3" font-family="Times,serif" font-size="14.00">rainy</text>
</g>
<!-- outlook&#45;&gt;rainy -->
<g id="edge3" class="edge"><title>outlook&#45;&gt;rainy</title>
<path fill="none" stroke="black" d="M191.743,-289.465C204.665,-279.525 221.58,-266.514 235.636,-255.701"/>
<polygon fill="black" stroke="black" points="238.165,-258.171 243.957,-249.3 233.897,-252.623 238.165,-258.171"/>
</g>
<!-- windy -->
<g id="node6" class="node"><title>windy</title>
<ellipse fill="none" stroke="black" cx="64.5473" cy="-162" rx="38.1938" ry="18"/>
<text text-anchor="middle" x="64.5473" y="-158.3" font-family="Times,serif" font-size="14.00">windy</text>
</g>
<!-- sunny&#45;&gt;windy -->
<g id="edge5" class="edge"><title>sunny&#45;&gt;windy</title>
<path fill="none" stroke="black" d="M80.4638,-216.055C78.1256,-208.261 75.2939,-198.822 72.671,-190.079"/>
<polygon fill="black" stroke="black" points="75.9558,-188.848 69.7299,-180.275 69.251,-190.859 75.9558,-188.848"/>
</g>
<!-- yes -->
<g id="node5" class="node"><title>yes</title>
<ellipse fill="none" stroke="black" cx="171.547" cy="-18" rx="27" ry="18"/>
<text text-anchor="middle" x="171.547" y="-14.3" font-family="Times,serif" font-size="14.00">yes</text>
</g>
<!-- overcast&#45;&gt;yes -->
<g id="edge4" class="edge"><title>overcast&#45;&gt;yes</title>
<path fill="none" stroke="black" d="M171.547,-143.871C171.547,-119.67 171.547,-75.2108 171.547,-46.3932"/>
<polygon fill="black" stroke="black" points="175.047,-46.1892 171.547,-36.1893 168.047,-46.1893 175.047,-46.1892"/>
</g>
<!-- humidity -->
<g id="node10" class="node"><title>humidity</title>
<ellipse fill="none" stroke="black" cx="292.547" cy="-162" rx="51.9908" ry="18"/>
<text text-anchor="middle" x="292.547" y="-158.3" font-family="Times,serif" font-size="14.00">humidity</text>
</g>
<!-- rainy&#45;&gt;humidity -->
<g id="edge10" class="edge"><title>rainy&#45;&gt;humidity</title>
<path fill="none" stroke="black" d="M269.809,-216.055C273.222,-208.091 277.371,-198.411 281.186,-189.51"/>
<polygon fill="black" stroke="black" points="284.421,-190.845 285.144,-180.275 277.987,-188.088 284.421,-190.845"/>
</g>
<!-- false -->
<g id="node7" class="node"><title>false</title>
<ellipse fill="none" stroke="black" cx="111.547" cy="-90" rx="32.4942" ry="18"/>
<text text-anchor="middle" x="111.547" y="-86.3" font-family="Times,serif" font-size="14.00">false</text>
</g>
<!-- windy&#45;&gt;false -->
<g id="edge6" class="edge"><title>windy&#45;&gt;false</title>
<path fill="none" stroke="black" d="M75.6856,-144.411C81.4218,-135.868 88.5317,-125.278 94.9043,-115.787"/>
<polygon fill="black" stroke="black" points="97.8203,-117.723 100.489,-107.47 92.0087,-113.821 97.8203,-117.723"/>
</g>
<!-- true -->
<g id="node8" class="node"><title>true</title>
<ellipse fill="none" stroke="black" cx="30.5473" cy="-90" rx="30.5947" ry="18"/>
<text text-anchor="middle" x="30.5473" y="-86.3" font-family="Times,serif" font-size="14.00">true</text>
</g>
<!-- windy&#45;&gt;true -->
<g id="edge7" class="edge"><title>windy&#45;&gt;true</title>
<path fill="none" stroke="black" d="M56.3168,-144.055C52.3494,-135.887 47.5043,-125.912 43.0906,-116.824"/>
<polygon fill="black" stroke="black" points="46.2193,-115.255 38.7019,-107.789 39.9228,-118.313 46.2193,-115.255"/>
</g>
<!-- false&#45;&gt;yes -->
<g id="edge8" class="edge"><title>false&#45;&gt;yes</title>
<path fill="none" stroke="black" d="M124.863,-73.4647C132.818,-64.1843 143.067,-52.2268 151.935,-41.881"/>
<polygon fill="black" stroke="black" points="154.83,-43.8818 158.68,-34.0114 149.515,-39.3262 154.83,-43.8818"/>
</g>
<!-- no -->
<g id="node9" class="node"><title>no</title>
<ellipse fill="none" stroke="black" cx="30.5473" cy="-18" rx="27" ry="18"/>
<text text-anchor="middle" x="30.5473" y="-14.3" font-family="Times,serif" font-size="14.00">no</text>
</g>
<!-- true&#45;&gt;no -->
<g id="edge9" class="edge"><title>true&#45;&gt;no</title>
<path fill="none" stroke="black" d="M30.5473,-71.6966C30.5473,-63.9827 30.5473,-54.7125 30.5473,-46.1124"/>
<polygon fill="black" stroke="black" points="34.0474,-46.1043 30.5473,-36.1043 27.0474,-46.1044 34.0474,-46.1043"/>
</g>
<!-- high -->
<g id="node11" class="node"><title>high</title>
<ellipse fill="none" stroke="black" cx="336.547" cy="-90" rx="31.3957" ry="18"/>
<text text-anchor="middle" x="336.547" y="-86.3" font-family="Times,serif" font-size="14.00">high</text>
</g>
<!-- humidity&#45;&gt;high -->
<g id="edge11" class="edge"><title>humidity&#45;&gt;high</title>
<path fill="none" stroke="black" d="M303.198,-144.055C308.518,-135.592 315.057,-125.19 320.931,-115.845"/>
<polygon fill="black" stroke="black" points="323.939,-117.636 326.297,-107.307 318.012,-113.911 323.939,-117.636"/>
</g>
<!-- normal -->
<g id="node12" class="node"><title>normal</title>
<ellipse fill="none" stroke="black" cx="243.547" cy="-90" rx="43.5923" ry="18"/>
<text text-anchor="middle" x="243.547" y="-86.3" font-family="Times,serif" font-size="14.00">normal</text>
</g>
<!-- humidity&#45;&gt;normal -->
<g id="edge12" class="edge"><title>humidity&#45;&gt;normal</title>
<path fill="none" stroke="black" d="M280.935,-144.411C274.955,-135.868 267.542,-125.278 260.898,-115.787"/>
<polygon fill="black" stroke="black" points="263.678,-113.655 255.076,-107.47 257.944,-117.669 263.678,-113.655"/>
</g>
<!-- no  -->
<g id="node13" class="node"><title>no </title>
<ellipse fill="none" stroke="black" cx="336.547" cy="-18" rx="27" ry="18"/>
<text text-anchor="middle" x="336.547" y="-14.3" font-family="Times,serif" font-size="14.00">no </text>
</g>
<!-- high&#45;&gt;no  -->
<g id="edge14" class="edge"><title>high&#45;&gt;no </title>
<path fill="none" stroke="black" d="M336.547,-71.6966C336.547,-63.9827 336.547,-54.7125 336.547,-46.1124"/>
<polygon fill="black" stroke="black" points="340.047,-46.1043 336.547,-36.1043 333.047,-46.1044 340.047,-46.1043"/>
</g>
<!-- normal&#45;&gt;yes -->
<g id="edge13" class="edge"><title>normal&#45;&gt;yes</title>
<path fill="none" stroke="black" d="M227.209,-73.1159C217.327,-63.508 204.593,-51.1277 193.799,-40.6338"/>
<polygon fill="black" stroke="black" points="195.961,-37.854 186.351,-33.3927 191.081,-42.873 195.961,-37.854"/>
</g>
</g>
</svg>
