<?xml version="1.0" encoding="UTF-8" standalone="no"?>
<!DOCTYPE svg PUBLIC "-//W3C//DTD SVG 1.1//EN"
 "http://www.w3.org/Graphics/SVG/1.1/DTD/svg11.dtd">
<!-- Generated by graphviz version 2.38.0 (20140413.2041)
 -->
<!-- Title: %3 Pages: 1 -->
<svg width="256pt" height="271pt"
 viewBox="0.00 0.00 256.22 271.22" xmlns="http://www.w3.org/2000/svg" xmlns:xlink="http://www.w3.org/1999/xlink">
<g id="graph0" class="graph" transform="scale(1 1) rotate(0) translate(4 267.22)">
<title>%3</title>
<polygon fill="white" stroke="none" points="-4,4 -4,-267.22 252.217,-267.22 252.217,4 -4,4"/>
<!-- x &gt; 4?
[15, 15] -->
<g id="node1" class="node"><title>x &gt; 4?
[15, 15]</title>
<ellipse fill="none" stroke="black" cx="82.5477" cy="-236.35" rx="50.8235" ry="26.7407"/>
<text text-anchor="middle" x="82.5477" y="-240.15" font-family="Times,serif" font-size="14.00">x &gt; 4?</text>
<text text-anchor="middle" x="82.5477" y="-225.15" font-family="Times,serif" font-size="14.00">[15, 15]</text>
</g>
<!-- blue
[11, 0] -->
<g id="node2" class="node"><title>blue
[11, 0]</title>
<ellipse fill="none" stroke="black" cx="44.5477" cy="-131.61" rx="44.5955" ry="26.7407"/>
<text text-anchor="middle" x="44.5477" y="-135.41" font-family="Times,serif" font-size="14.00">blue</text>
<text text-anchor="middle" x="44.5477" y="-120.41" font-family="Times,serif" font-size="14.00">[11, 0]</text>
</g>
<!-- x &gt; 4?
[15, 15]&#45;&gt;blue
[11, 0] -->
<g id="edge1" class="edge"><title>x &gt; 4?
[15, 15]&#45;&gt;blue
[11, 0]</title>
<path fill="none" stroke="black" d="M73.0567,-209.69C68.3513,-196.968 62.5976,-181.411 57.4944,-167.614"/>
<polygon fill="black" stroke="black" points="60.6695,-166.109 53.9177,-157.944 54.1041,-168.537 60.6695,-166.109"/>
<text text-anchor="middle" x="77.5477" y="-180.28" font-family="Times,serif" font-size="14.00">No</text>
</g>
<!-- x &gt; 8?
[4, 15] -->
<g id="node3" class="node"><title>x &gt; 8?
[4, 15]</title>
<ellipse fill="none" stroke="black" cx="151.548" cy="-131.61" rx="44.5955" ry="26.7407"/>
<text text-anchor="middle" x="151.548" y="-135.41" font-family="Times,serif" font-size="14.00">x &gt; 8?</text>
<text text-anchor="middle" x="151.548" y="-120.41" font-family="Times,serif" font-size="14.00">[4, 15]</text>
</g>
<!-- x &gt; 4?
[15, 15]&#45;&gt;x &gt; 8?
[4, 15] -->
<g id="edge2" class="edge"><title>x &gt; 4?
[15, 15]&#45;&gt;x &gt; 8?
[4, 15]</title>
<path fill="none" stroke="black" d="M99.0749,-210.741C108.274,-197.045 119.837,-179.827 129.766,-165.042"/>
<polygon fill="black" stroke="black" points="132.724,-166.917 135.393,-156.664 126.913,-163.014 132.724,-166.917"/>
<text text-anchor="middle" x="134.048" y="-180.28" font-family="Times,serif" font-size="14.00">Yes</text>
</g>
<!-- [4, 4] -->
<g id="node4" class="node"><title>[4, 4]</title>
<ellipse fill="none" stroke="black" cx="101.548" cy="-26.8701" rx="35.194" ry="18"/>
<text text-anchor="middle" x="101.548" y="-23.1701" font-family="Times,serif" font-size="14.00">[4, 4]</text>
</g>
<!-- x &gt; 8?
[4, 15]&#45;&gt;[4, 4] -->
<g id="edge3" class="edge"><title>x &gt; 8?
[4, 15]&#45;&gt;[4, 4]</title>
<path fill="none" stroke="black" d="M139.444,-105.74C131.785,-90.0021 121.902,-69.6951 114.15,-53.7646"/>
<polygon fill="black" stroke="black" points="117.16,-51.9513 109.637,-44.4912 110.866,-55.0146 117.16,-51.9513"/>
<text text-anchor="middle" x="140.548" y="-75.5401" font-family="Times,serif" font-size="14.00">No</text>
</g>
<!-- orange
[0, 11] -->
<g id="node5" class="node"><title>orange
[0, 11]</title>
<ellipse fill="none" stroke="black" cx="201.548" cy="-26.8701" rx="46.8387" ry="26.7407"/>
<text text-anchor="middle" x="201.548" y="-30.6701" font-family="Times,serif" font-size="14.00">orange</text>
<text text-anchor="middle" x="201.548" y="-15.6701" font-family="Times,serif" font-size="14.00">[0, 11]</text>
</g>
<!-- x &gt; 8?
[4, 15]&#45;&gt;orange
[0, 11] -->
<g id="edge4" class="edge"><title>x &gt; 8?
[4, 15]&#45;&gt;orange
[0, 11]</title>
<path fill="none" stroke="black" d="M163.651,-105.74C170.053,-92.5863 178.007,-76.2411 184.973,-61.9269"/>
<polygon fill="black" stroke="black" points="188.153,-63.391 189.382,-52.8676 181.859,-60.3278 188.153,-63.391"/>
<text text-anchor="middle" x="191.048" y="-75.5401" font-family="Times,serif" font-size="14.00">Yes</text>
</g>
</g>
</svg>
