<?xml version="1.0" encoding="UTF-8" standalone="no"?>
<!DOCTYPE svg PUBLIC "-//W3C//DTD SVG 1.1//EN"
 "http://www.w3.org/Graphics/SVG/1.1/DTD/svg11.dtd">
<!-- Generated by graphviz version 2.38.0 (20140413.2041)
 -->
<!-- Title: Tree Pages: 1 -->
<svg width="585pt" height="552pt"
 viewBox="0.00 0.00 585.00 552.00" xmlns="http://www.w3.org/2000/svg" xmlns:xlink="http://www.w3.org/1999/xlink">
<g id="graph0" class="graph" transform="scale(1 1) rotate(0) translate(4 548)">
<title>Tree</title>
<polygon fill="white" stroke="none" points="-4,4 -4,-548 581,-548 581,4 -4,4"/>
<!-- 0 -->
<g id="node1" class="node"><title>0</title>
<path fill="#399de5" fill-opacity="0.443137" stroke="black" d="M232,-544C232,-544 140,-544 140,-544 134,-544 128,-538 128,-532 128,-532 128,-473 128,-473 128,-467 134,-461 140,-461 140,-461 232,-461 232,-461 238,-461 244,-467 244,-473 244,-473 244,-532 244,-532 244,-538 238,-544 232,-544"/>
<text text-anchor="start" x="136" y="-528.8" font-family="Helvetica,sans-Serif" font-size="14.00">Outlook ≤ 0.5</text>
<text text-anchor="start" x="142" y="-513.8" font-family="Helvetica,sans-Serif" font-size="14.00">gini = 0.459</text>
<text text-anchor="start" x="136" y="-498.8" font-family="Helvetica,sans-Serif" font-size="14.00">samples = 14</text>
<text text-anchor="start" x="137" y="-483.8" font-family="Helvetica,sans-Serif" font-size="14.00">value = [5, 9]</text>
<text text-anchor="start" x="145" y="-468.8" font-family="Helvetica,sans-Serif" font-size="14.00">class = yes</text>
</g>
<!-- 1 -->
<g id="node2" class="node"><title>1</title>
<path fill="#399de5" stroke="black" d="M163,-417.5C163,-417.5 73,-417.5 73,-417.5 67,-417.5 61,-411.5 61,-405.5 61,-405.5 61,-361.5 61,-361.5 61,-355.5 67,-349.5 73,-349.5 73,-349.5 163,-349.5 163,-349.5 169,-349.5 175,-355.5 175,-361.5 175,-361.5 175,-405.5 175,-405.5 175,-411.5 169,-417.5 163,-417.5"/>
<text text-anchor="start" x="83" y="-402.3" font-family="Helvetica,sans-Serif" font-size="14.00">gini = 0.0</text>
<text text-anchor="start" x="72.5" y="-387.3" font-family="Helvetica,sans-Serif" font-size="14.00">samples = 4</text>
<text text-anchor="start" x="69" y="-372.3" font-family="Helvetica,sans-Serif" font-size="14.00">value = [0, 4]</text>
<text text-anchor="start" x="77" y="-357.3" font-family="Helvetica,sans-Serif" font-size="14.00">class = yes</text>
</g>
<!-- 0&#45;&gt;1 -->
<g id="edge1" class="edge"><title>0&#45;&gt;1</title>
<path fill="none" stroke="black" d="M162.408,-460.907C155.93,-449.763 148.895,-437.658 142.375,-426.439"/>
<polygon fill="black" stroke="black" points="145.328,-424.554 137.277,-417.667 139.275,-428.072 145.328,-424.554"/>
<text text-anchor="middle" x="130.876" y="-438.134" font-family="Helvetica,sans-Serif" font-size="14.00">True</text>
</g>
<!-- 2 -->
<g id="node3" class="node"><title>2</title>
<path fill="none" stroke="black" d="M305,-425C305,-425 205,-425 205,-425 199,-425 193,-419 193,-413 193,-413 193,-354 193,-354 193,-348 199,-342 205,-342 205,-342 305,-342 305,-342 311,-342 317,-348 317,-354 317,-354 317,-413 317,-413 317,-419 311,-425 305,-425"/>
<text text-anchor="start" x="201" y="-409.8" font-family="Helvetica,sans-Serif" font-size="14.00">Humidity ≤ 0.5</text>
<text text-anchor="start" x="220" y="-394.8" font-family="Helvetica,sans-Serif" font-size="14.00">gini = 0.5</text>
<text text-anchor="start" x="205" y="-379.8" font-family="Helvetica,sans-Serif" font-size="14.00">samples = 10</text>
<text text-anchor="start" x="206" y="-364.8" font-family="Helvetica,sans-Serif" font-size="14.00">value = [5, 5]</text>
<text text-anchor="start" x="217.5" y="-349.8" font-family="Helvetica,sans-Serif" font-size="14.00">class = no</text>
</g>
<!-- 0&#45;&gt;2 -->
<g id="edge2" class="edge"><title>0&#45;&gt;2</title>
<path fill="none" stroke="black" d="M209.939,-460.907C215.077,-452.195 220.561,-442.897 225.871,-433.893"/>
<polygon fill="black" stroke="black" points="229.038,-435.412 231.103,-425.021 223.008,-431.857 229.038,-435.412"/>
<text text-anchor="middle" x="237.35" y="-445.528" font-family="Helvetica,sans-Serif" font-size="14.00">False</text>
</g>
<!-- 3 -->
<g id="node4" class="node"><title>3</title>
<path fill="#e58139" fill-opacity="0.749020" stroke="black" d="M234,-306C234,-306 142,-306 142,-306 136,-306 130,-300 130,-294 130,-294 130,-235 130,-235 130,-229 136,-223 142,-223 142,-223 234,-223 234,-223 240,-223 246,-229 246,-235 246,-235 246,-294 246,-294 246,-300 240,-306 234,-306"/>
<text text-anchor="start" x="138" y="-290.8" font-family="Helvetica,sans-Serif" font-size="14.00">Outlook ≤ 1.5</text>
<text text-anchor="start" x="148.5" y="-275.8" font-family="Helvetica,sans-Serif" font-size="14.00">gini = 0.32</text>
<text text-anchor="start" x="142.5" y="-260.8" font-family="Helvetica,sans-Serif" font-size="14.00">samples = 5</text>
<text text-anchor="start" x="139" y="-245.8" font-family="Helvetica,sans-Serif" font-size="14.00">value = [4, 1]</text>
<text text-anchor="start" x="150.5" y="-230.8" font-family="Helvetica,sans-Serif" font-size="14.00">class = no</text>
</g>
<!-- 2&#45;&gt;3 -->
<g id="edge3" class="edge"><title>2&#45;&gt;3</title>
<path fill="none" stroke="black" d="M231.755,-341.907C226.766,-333.195 221.441,-323.897 216.285,-314.893"/>
<polygon fill="black" stroke="black" points="219.211,-312.959 211.204,-306.021 213.136,-316.438 219.211,-312.959"/>
</g>
<!-- 8 -->
<g id="node9" class="node"><title>8</title>
<path fill="#399de5" fill-opacity="0.749020" stroke="black" d="M366,-306C366,-306 276,-306 276,-306 270,-306 264,-300 264,-294 264,-294 264,-235 264,-235 264,-229 270,-223 276,-223 276,-223 366,-223 366,-223 372,-223 378,-229 378,-235 378,-235 378,-294 378,-294 378,-300 372,-306 366,-306"/>
<text text-anchor="start" x="277" y="-290.8" font-family="Helvetica,sans-Serif" font-size="14.00">Windy ≤ 0.5</text>
<text text-anchor="start" x="281.5" y="-275.8" font-family="Helvetica,sans-Serif" font-size="14.00">gini = 0.32</text>
<text text-anchor="start" x="275.5" y="-260.8" font-family="Helvetica,sans-Serif" font-size="14.00">samples = 5</text>
<text text-anchor="start" x="272" y="-245.8" font-family="Helvetica,sans-Serif" font-size="14.00">value = [1, 4]</text>
<text text-anchor="start" x="280" y="-230.8" font-family="Helvetica,sans-Serif" font-size="14.00">class = yes</text>
</g>
<!-- 2&#45;&gt;8 -->
<g id="edge8" class="edge"><title>2&#45;&gt;8</title>
<path fill="none" stroke="black" d="M277.898,-341.907C282.813,-333.195 288.058,-323.897 293.137,-314.893"/>
<polygon fill="black" stroke="black" points="296.277,-316.45 298.142,-306.021 290.18,-313.011 296.277,-316.45"/>
</g>
<!-- 4 -->
<g id="node5" class="node"><title>4</title>
<path fill="#e58139" stroke="black" d="M102,-179.5C102,-179.5 12,-179.5 12,-179.5 6,-179.5 0,-173.5 0,-167.5 0,-167.5 0,-123.5 0,-123.5 0,-117.5 6,-111.5 12,-111.5 12,-111.5 102,-111.5 102,-111.5 108,-111.5 114,-117.5 114,-123.5 114,-123.5 114,-167.5 114,-167.5 114,-173.5 108,-179.5 102,-179.5"/>
<text text-anchor="start" x="22" y="-164.3" font-family="Helvetica,sans-Serif" font-size="14.00">gini = 0.0</text>
<text text-anchor="start" x="11.5" y="-149.3" font-family="Helvetica,sans-Serif" font-size="14.00">samples = 3</text>
<text text-anchor="start" x="8" y="-134.3" font-family="Helvetica,sans-Serif" font-size="14.00">value = [3, 0]</text>
<text text-anchor="start" x="19.5" y="-119.3" font-family="Helvetica,sans-Serif" font-size="14.00">class = no</text>
</g>
<!-- 3&#45;&gt;4 -->
<g id="edge4" class="edge"><title>3&#45;&gt;4</title>
<path fill="none" stroke="black" d="M142.55,-222.907C129.33,-211.101 114.905,-198.217 101.73,-186.45"/>
<polygon fill="black" stroke="black" points="103.925,-183.718 94.1356,-179.667 99.2626,-188.939 103.925,-183.718"/>
</g>
<!-- 5 -->
<g id="node6" class="node"><title>5</title>
<path fill="none" stroke="black" d="M234,-187C234,-187 144,-187 144,-187 138,-187 132,-181 132,-175 132,-175 132,-116 132,-116 132,-110 138,-104 144,-104 144,-104 234,-104 234,-104 240,-104 246,-110 246,-116 246,-116 246,-175 246,-175 246,-181 240,-187 234,-187"/>
<text text-anchor="start" x="145" y="-171.8" font-family="Helvetica,sans-Serif" font-size="14.00">Windy ≤ 0.5</text>
<text text-anchor="start" x="154" y="-156.8" font-family="Helvetica,sans-Serif" font-size="14.00">gini = 0.5</text>
<text text-anchor="start" x="143.5" y="-141.8" font-family="Helvetica,sans-Serif" font-size="14.00">samples = 2</text>
<text text-anchor="start" x="140" y="-126.8" font-family="Helvetica,sans-Serif" font-size="14.00">value = [1, 1]</text>
<text text-anchor="start" x="151.5" y="-111.8" font-family="Helvetica,sans-Serif" font-size="14.00">class = no</text>
</g>
<!-- 3&#45;&gt;5 -->
<g id="edge5" class="edge"><title>3&#45;&gt;5</title>
<path fill="none" stroke="black" d="M188.347,-222.907C188.418,-214.649 188.493,-205.864 188.566,-197.302"/>
<polygon fill="black" stroke="black" points="192.068,-197.05 188.654,-187.021 185.068,-196.99 192.068,-197.05"/>
</g>
<!-- 6 -->
<g id="node7" class="node"><title>6</title>
<path fill="#399de5" stroke="black" d="M135,-68C135,-68 45,-68 45,-68 39,-68 33,-62 33,-56 33,-56 33,-12 33,-12 33,-6 39,-0 45,-0 45,-0 135,-0 135,-0 141,-0 147,-6 147,-12 147,-12 147,-56 147,-56 147,-62 141,-68 135,-68"/>
<text text-anchor="start" x="55" y="-52.8" font-family="Helvetica,sans-Serif" font-size="14.00">gini = 0.0</text>
<text text-anchor="start" x="44.5" y="-37.8" font-family="Helvetica,sans-Serif" font-size="14.00">samples = 1</text>
<text text-anchor="start" x="41" y="-22.8" font-family="Helvetica,sans-Serif" font-size="14.00">value = [0, 1]</text>
<text text-anchor="start" x="49" y="-7.8" font-family="Helvetica,sans-Serif" font-size="14.00">class = yes</text>
</g>
<!-- 5&#45;&gt;6 -->
<g id="edge6" class="edge"><title>5&#45;&gt;6</title>
<path fill="none" stroke="black" d="M152.136,-103.726C143.89,-94.6054 135.142,-84.93 126.895,-75.8078"/>
<polygon fill="black" stroke="black" points="129.409,-73.3701 120.106,-68.2996 124.217,-78.0647 129.409,-73.3701"/>
</g>
<!-- 7 -->
<g id="node8" class="node"><title>7</title>
<path fill="#e58139" stroke="black" d="M267,-68C267,-68 177,-68 177,-68 171,-68 165,-62 165,-56 165,-56 165,-12 165,-12 165,-6 171,-0 177,-0 177,-0 267,-0 267,-0 273,-0 279,-6 279,-12 279,-12 279,-56 279,-56 279,-62 273,-68 267,-68"/>
<text text-anchor="start" x="187" y="-52.8" font-family="Helvetica,sans-Serif" font-size="14.00">gini = 0.0</text>
<text text-anchor="start" x="176.5" y="-37.8" font-family="Helvetica,sans-Serif" font-size="14.00">samples = 1</text>
<text text-anchor="start" x="173" y="-22.8" font-family="Helvetica,sans-Serif" font-size="14.00">value = [1, 0]</text>
<text text-anchor="start" x="184.5" y="-7.8" font-family="Helvetica,sans-Serif" font-size="14.00">class = no</text>
</g>
<!-- 5&#45;&gt;7 -->
<g id="edge7" class="edge"><title>5&#45;&gt;7</title>
<path fill="none" stroke="black" d="M201.288,-103.726C203.817,-95.3351 206.487,-86.4745 209.039,-78.0072"/>
<polygon fill="black" stroke="black" points="212.43,-78.8842 211.965,-68.2996 205.728,-76.8643 212.43,-78.8842"/>
</g>
<!-- 9 -->
<g id="node10" class="node"><title>9</title>
<path fill="#399de5" stroke="black" d="M366,-179.5C366,-179.5 276,-179.5 276,-179.5 270,-179.5 264,-173.5 264,-167.5 264,-167.5 264,-123.5 264,-123.5 264,-117.5 270,-111.5 276,-111.5 276,-111.5 366,-111.5 366,-111.5 372,-111.5 378,-117.5 378,-123.5 378,-123.5 378,-167.5 378,-167.5 378,-173.5 372,-179.5 366,-179.5"/>
<text text-anchor="start" x="286" y="-164.3" font-family="Helvetica,sans-Serif" font-size="14.00">gini = 0.0</text>
<text text-anchor="start" x="275.5" y="-149.3" font-family="Helvetica,sans-Serif" font-size="14.00">samples = 3</text>
<text text-anchor="start" x="272" y="-134.3" font-family="Helvetica,sans-Serif" font-size="14.00">value = [0, 3]</text>
<text text-anchor="start" x="280" y="-119.3" font-family="Helvetica,sans-Serif" font-size="14.00">class = yes</text>
</g>
<!-- 8&#45;&gt;9 -->
<g id="edge9" class="edge"><title>8&#45;&gt;9</title>
<path fill="none" stroke="black" d="M321,-222.907C321,-212.204 321,-200.615 321,-189.776"/>
<polygon fill="black" stroke="black" points="324.5,-189.667 321,-179.667 317.5,-189.667 324.5,-189.667"/>
</g>
<!-- 10 -->
<g id="node11" class="node"><title>10</title>
<path fill="none" stroke="black" d="M500,-187C500,-187 408,-187 408,-187 402,-187 396,-181 396,-175 396,-175 396,-116 396,-116 396,-110 402,-104 408,-104 408,-104 500,-104 500,-104 506,-104 512,-110 512,-116 512,-116 512,-175 512,-175 512,-181 506,-187 500,-187"/>
<text text-anchor="start" x="404" y="-171.8" font-family="Helvetica,sans-Serif" font-size="14.00">Outlook ≤ 1.5</text>
<text text-anchor="start" x="419" y="-156.8" font-family="Helvetica,sans-Serif" font-size="14.00">gini = 0.5</text>
<text text-anchor="start" x="408.5" y="-141.8" font-family="Helvetica,sans-Serif" font-size="14.00">samples = 2</text>
<text text-anchor="start" x="405" y="-126.8" font-family="Helvetica,sans-Serif" font-size="14.00">value = [1, 1]</text>
<text text-anchor="start" x="416.5" y="-111.8" font-family="Helvetica,sans-Serif" font-size="14.00">class = no</text>
</g>
<!-- 8&#45;&gt;10 -->
<g id="edge10" class="edge"><title>8&#45;&gt;10</title>
<path fill="none" stroke="black" d="M367.144,-222.907C377.872,-213.469 389.384,-203.343 400.403,-193.649"/>
<polygon fill="black" stroke="black" points="402.741,-196.254 407.938,-187.021 398.118,-190.998 402.741,-196.254"/>
</g>
<!-- 11 -->
<g id="node12" class="node"><title>11</title>
<path fill="#399de5" stroke="black" d="M433,-68C433,-68 343,-68 343,-68 337,-68 331,-62 331,-56 331,-56 331,-12 331,-12 331,-6 337,-0 343,-0 343,-0 433,-0 433,-0 439,-0 445,-6 445,-12 445,-12 445,-56 445,-56 445,-62 439,-68 433,-68"/>
<text text-anchor="start" x="353" y="-52.8" font-family="Helvetica,sans-Serif" font-size="14.00">gini = 0.0</text>
<text text-anchor="start" x="342.5" y="-37.8" font-family="Helvetica,sans-Serif" font-size="14.00">samples = 1</text>
<text text-anchor="start" x="339" y="-22.8" font-family="Helvetica,sans-Serif" font-size="14.00">value = [0, 1]</text>
<text text-anchor="start" x="347" y="-7.8" font-family="Helvetica,sans-Serif" font-size="14.00">class = yes</text>
</g>
<!-- 10&#45;&gt;11 -->
<g id="edge11" class="edge"><title>10&#45;&gt;11</title>
<path fill="none" stroke="black" d="M429.424,-103.726C424.146,-94.9703 418.561,-85.7032 413.258,-76.9051"/>
<polygon fill="black" stroke="black" points="416.231,-75.0574 408.071,-68.2996 410.236,-78.671 416.231,-75.0574"/>
</g>
<!-- 12 -->
<g id="node13" class="node"><title>12</title>
<path fill="#e58139" stroke="black" d="M565,-68C565,-68 475,-68 475,-68 469,-68 463,-62 463,-56 463,-56 463,-12 463,-12 463,-6 469,-0 475,-0 475,-0 565,-0 565,-0 571,-0 577,-6 577,-12 577,-12 577,-56 577,-56 577,-62 571,-68 565,-68"/>
<text text-anchor="start" x="485" y="-52.8" font-family="Helvetica,sans-Serif" font-size="14.00">gini = 0.0</text>
<text text-anchor="start" x="474.5" y="-37.8" font-family="Helvetica,sans-Serif" font-size="14.00">samples = 1</text>
<text text-anchor="start" x="471" y="-22.8" font-family="Helvetica,sans-Serif" font-size="14.00">value = [1, 0]</text>
<text text-anchor="start" x="482.5" y="-7.8" font-family="Helvetica,sans-Serif" font-size="14.00">class = no</text>
</g>
<!-- 10&#45;&gt;12 -->
<g id="edge12" class="edge"><title>10&#45;&gt;12</title>
<path fill="none" stroke="black" d="M478.576,-103.726C483.854,-94.9703 489.439,-85.7032 494.742,-76.9051"/>
<polygon fill="black" stroke="black" points="497.764,-78.671 499.929,-68.2996 491.769,-75.0574 497.764,-78.671"/>
</g>
</g>
</svg>
