<?xml version="1.0" encoding="UTF-8" standalone="no"?>
<!DOCTYPE svg PUBLIC "-//W3C//DTD SVG 1.1//EN"
 "http://www.w3.org/Graphics/SVG/1.1/DTD/svg11.dtd">
<!-- Generated by graphviz version 2.38.0 (20140413.2041)
 -->
<!-- Title: %3 Pages: 1 -->
<svg width="491pt" height="271pt"
 viewBox="0.00 0.00 490.69 271.22" xmlns="http://www.w3.org/2000/svg" xmlns:xlink="http://www.w3.org/1999/xlink">
<g id="graph0" class="graph" transform="scale(1 1) rotate(0) translate(4 267.22)">
<title>%3</title>
<polygon fill="white" stroke="none" points="-4,4 -4,-267.22 486.693,-267.22 486.693,4 -4,4"/>
<!-- y &gt; 3?
[20, 20] -->
<g id="node1" class="node"><title>y &gt; 3?
[20, 20]</title>
<ellipse fill="none" stroke="black" cx="215.548" cy="-236.35" rx="50.8235" ry="26.7407"/>
<text text-anchor="middle" x="215.548" y="-240.15" font-family="Times,serif" font-size="14.00">y &gt; 3?</text>
<text text-anchor="middle" x="215.548" y="-225.15" font-family="Times,serif" font-size="14.00">[20, 20]</text>
</g>
<!-- x &gt; 9?
[10, 6] -->
<g id="node2" class="node"><title>x &gt; 9?
[10, 6]</title>
<ellipse fill="none" stroke="black" cx="150.548" cy="-131.61" rx="44.5955" ry="26.7407"/>
<text text-anchor="middle" x="150.548" y="-135.41" font-family="Times,serif" font-size="14.00">x &gt; 9?</text>
<text text-anchor="middle" x="150.548" y="-120.41" font-family="Times,serif" font-size="14.00">[10, 6]</text>
</g>
<!-- y &gt; 3?
[20, 20]&#45;&gt;x &gt; 9?
[10, 6] -->
<g id="edge1" class="edge"><title>y &gt; 3?
[20, 20]&#45;&gt;x &gt; 9?
[10, 6]</title>
<path fill="none" stroke="black" d="M199.979,-210.741C191.456,-197.271 180.779,-180.395 171.531,-165.777"/>
<polygon fill="black" stroke="black" points="174.294,-163.598 165.99,-157.018 168.379,-167.34 174.294,-163.598"/>
<text text-anchor="middle" x="198.548" y="-180.28" font-family="Times,serif" font-size="14.00">No</text>
</g>
<!-- x &gt; 5?
[10, 14] -->
<g id="node3" class="node"><title>x &gt; 5?
[10, 14]</title>
<ellipse fill="none" stroke="black" cx="263.548" cy="-131.61" rx="50.8235" ry="26.7407"/>
<text text-anchor="middle" x="263.548" y="-135.41" font-family="Times,serif" font-size="14.00">x &gt; 5?</text>
<text text-anchor="middle" x="263.548" y="-120.41" font-family="Times,serif" font-size="14.00">[10, 14]</text>
</g>
<!-- y &gt; 3?
[20, 20]&#45;&gt;x &gt; 5?
[10, 14] -->
<g id="edge2" class="edge"><title>y &gt; 3?
[20, 20]&#45;&gt;x &gt; 5?
[10, 14]</title>
<path fill="none" stroke="black" d="M227.413,-209.954C233.413,-197.111 240.786,-181.329 247.304,-167.378"/>
<polygon fill="black" stroke="black" points="250.591,-168.612 251.653,-158.071 244.249,-165.649 250.591,-168.612"/>
<text text-anchor="middle" x="255.048" y="-180.28" font-family="Times,serif" font-size="14.00">Yes</text>
</g>
<!-- blue
[10, 0] -->
<g id="node4" class="node"><title>blue
[10, 0]</title>
<ellipse fill="none" stroke="black" cx="44.5477" cy="-26.8701" rx="44.5955" ry="26.7407"/>
<text text-anchor="middle" x="44.5477" y="-30.6701" font-family="Times,serif" font-size="14.00">blue</text>
<text text-anchor="middle" x="44.5477" y="-15.6701" font-family="Times,serif" font-size="14.00">[10, 0]</text>
</g>
<!-- x &gt; 9?
[10, 6]&#45;&gt;blue
[10, 0] -->
<g id="edge3" class="edge"><title>x &gt; 9?
[10, 6]&#45;&gt;blue
[10, 0]</title>
<path fill="none" stroke="black" d="M127.547,-108.317C112.129,-93.3729 91.6599,-73.5334 74.9074,-57.296"/>
<polygon fill="black" stroke="black" points="77.1198,-54.5662 67.5033,-50.1196 72.248,-59.5927 77.1198,-54.5662"/>
<text text-anchor="middle" x="115.548" y="-75.5401" font-family="Times,serif" font-size="14.00">No</text>
</g>
<!-- orange
[0, 6] -->
<g id="node5" class="node"><title>orange
[0, 6]</title>
<ellipse fill="none" stroke="black" cx="153.548" cy="-26.8701" rx="46.8387" ry="26.7407"/>
<text text-anchor="middle" x="153.548" y="-30.6701" font-family="Times,serif" font-size="14.00">orange</text>
<text text-anchor="middle" x="153.548" y="-15.6701" font-family="Times,serif" font-size="14.00">[0, 6]</text>
</g>
<!-- x &gt; 9?
[10, 6]&#45;&gt;orange
[0, 6] -->
<g id="edge4" class="edge"><title>x &gt; 9?
[10, 6]&#45;&gt;orange
[0, 6]</title>
<path fill="none" stroke="black" d="M151.305,-104.685C151.664,-92.3951 152.098,-77.5066 152.489,-64.1214"/>
<polygon fill="black" stroke="black" points="155.997,-63.8854 152.791,-53.7874 149,-63.681 155.997,-63.8854"/>
<text text-anchor="middle" x="165.048" y="-75.5401" font-family="Times,serif" font-size="14.00">Yes</text>
</g>
<!-- blue
[9, 0] -->
<g id="node6" class="node"><title>blue
[9, 0]</title>
<ellipse fill="none" stroke="black" cx="258.548" cy="-26.8701" rx="38.3684" ry="26.7407"/>
<text text-anchor="middle" x="258.548" y="-30.6701" font-family="Times,serif" font-size="14.00">blue</text>
<text text-anchor="middle" x="258.548" y="-15.6701" font-family="Times,serif" font-size="14.00">[9, 0]</text>
</g>
<!-- x &gt; 5?
[10, 14]&#45;&gt;blue
[9, 0] -->
<g id="edge5" class="edge"><title>x &gt; 5?
[10, 14]&#45;&gt;blue
[9, 0]</title>
<path fill="none" stroke="black" d="M262.286,-104.685C261.688,-92.3951 260.963,-77.5066 260.312,-64.1214"/>
<polygon fill="black" stroke="black" points="263.791,-63.6054 259.809,-53.7874 256.799,-63.9458 263.791,-63.6054"/>
<text text-anchor="middle" x="272.548" y="-75.5401" font-family="Times,serif" font-size="14.00">No</text>
</g>
<!-- almost orange
[1, 14] -->
<g id="node7" class="node"><title>almost orange
[1, 14]</title>
<ellipse fill="none" stroke="black" cx="398.548" cy="-26.8701" rx="84.2917" ry="26.7407"/>
<text text-anchor="middle" x="398.548" y="-30.6701" font-family="Times,serif" font-size="14.00">almost orange</text>
<text text-anchor="middle" x="398.548" y="-15.6701" font-family="Times,serif" font-size="14.00">[1, 14]</text>
</g>
<!-- x &gt; 5?
[10, 14]&#45;&gt;almost orange
[1, 14] -->
<g id="edge6" class="edge"><title>x &gt; 5?
[10, 14]&#45;&gt;almost orange
[1, 14]</title>
<path fill="none" stroke="black" d="M291.848,-109.072C311.319,-94.2546 337.449,-74.3688 358.977,-57.9851"/>
<polygon fill="black" stroke="black" points="361.141,-60.7365 366.979,-51.8952 356.901,-55.1661 361.141,-60.7365"/>
<text text-anchor="middle" x="352.048" y="-75.5401" font-family="Times,serif" font-size="14.00">Yes</text>
</g>
</g>
</svg>
