<?xml version="1.0" encoding="UTF-8" standalone="no"?>
<!DOCTYPE svg PUBLIC "-//W3C//DTD SVG 1.1//EN"
 "http://www.w3.org/Graphics/SVG/1.1/DTD/svg11.dtd">
<!-- Generated by graphviz version 2.38.0 (20140413.2041)
 -->
<!-- Title: %3 Pages: 1 -->
<svg width="515pt" height="434pt"
 viewBox="0.00 0.00 514.54 433.79" xmlns="http://www.w3.org/2000/svg" xmlns:xlink="http://www.w3.org/1999/xlink">
<g id="graph0" class="graph" transform="scale(1 1) rotate(0) translate(4 429.785)">
<title>%3</title>
<polygon fill="white" stroke="none" points="-4,4 -4,-429.785 510.536,-429.785 510.536,4 -4,4"/>
<!-- top -->
<g id="node1" class="node"><title>top</title>
<ellipse fill="lightblue" stroke="lightblue" cx="346" cy="-407.785" rx="160.572" ry="18"/>
<text text-anchor="middle" x="346" y="-404.085" font-family="Times,serif" font-size="14.00">Should I attend the ML lecture?</text>
</g>
<!-- q1 -->
<g id="node2" class="node"><title>q1</title>
<polygon fill="none" stroke="black" points="444.5,-352.785 247.5,-352.785 247.5,-316.785 444.5,-316.785 444.5,-352.785"/>
<text text-anchor="middle" x="346" y="-331.085" font-family="Times,serif" font-size="14.00">Do I fulfill requirements?</text>
</g>
<!-- top&#45;&gt;q1 -->
<g id="edge1" class="edge"><title>top&#45;&gt;q1</title>
<path fill="none" stroke="black" d="M346,-389.598C346,-381.575 346,-371.833 346,-362.855"/>
<polygon fill="black" stroke="black" points="349.5,-362.814 346,-352.814 342.5,-362.814 349.5,-362.814"/>
</g>
<!-- q2 -->
<g id="node3" class="node"><title>q2</title>
<polygon fill="none" stroke="black" points="326,-256.488 216,-256.488 216,-220.488 326,-220.488 326,-256.488"/>
<text text-anchor="middle" x="271" y="-234.788" font-family="Times,serif" font-size="14.00">Do I like CS?</text>
</g>
<!-- q1&#45;&gt;q2 -->
<g id="edge2" class="edge"><title>q1&#45;&gt;q2</title>
<path fill="none" stroke="black" d="M332.244,-316.49C320.72,-302.001 304.115,-281.123 291.101,-264.761"/>
<polygon fill="black" stroke="black" points="293.633,-262.322 284.669,-256.674 288.154,-266.679 293.633,-262.322"/>
<text text-anchor="middle" x="330.5" y="-287.585" font-family="Times,serif" font-size="14.00">Yes</text>
</g>
<!-- no1 -->
<g id="node4" class="node"><title>no1</title>
<ellipse fill="red" stroke="red" cx="371" cy="-238.488" rx="27.0966" ry="27.0966"/>
<text text-anchor="middle" x="371" y="-234.788" font-family="Times,serif" font-size="14.00">No </text>
</g>
<!-- q1&#45;&gt;no1 -->
<g id="edge3" class="edge"><title>q1&#45;&gt;no1</title>
<path fill="none" stroke="black" d="M350.585,-316.49C353.648,-304.938 357.787,-289.324 361.538,-275.176"/>
<polygon fill="black" stroke="black" points="365,-275.775 364.18,-265.212 358.234,-273.981 365,-275.775"/>
<text text-anchor="middle" x="371" y="-287.585" font-family="Times,serif" font-size="14.00">No</text>
</g>
<!-- q3 -->
<g id="node5" class="node"><title>q3</title>
<polygon fill="none" stroke="black" points="272,-150.893 0,-150.893 0,-114.893 272,-114.893 272,-150.893"/>
<text text-anchor="middle" x="136" y="-129.193" font-family="Times,serif" font-size="14.00">Is the lecture early in the morning?</text>
</g>
<!-- q2&#45;&gt;q3 -->
<g id="edge4" class="edge"><title>q2&#45;&gt;q3</title>
<path fill="none" stroke="black" d="M248.707,-220.381C226.235,-203.136 191.389,-176.396 166.393,-157.215"/>
<polygon fill="black" stroke="black" points="168.39,-154.336 158.326,-151.025 164.128,-159.889 168.39,-154.336"/>
<text text-anchor="middle" x="224.5" y="-181.99" font-family="Times,serif" font-size="14.00">Yes</text>
</g>
<!-- no2 -->
<g id="node6" class="node"><title>no2</title>
<ellipse fill="red" stroke="red" cx="317" cy="-132.893" rx="27.0966" ry="27.0966"/>
<text text-anchor="middle" x="317" y="-129.193" font-family="Times,serif" font-size="14.00">No </text>
</g>
<!-- q2&#45;&gt;no2 -->
<g id="edge5" class="edge"><title>q2&#45;&gt;no2</title>
<path fill="none" stroke="black" d="M278.596,-220.381C284.926,-206.125 294.137,-185.381 301.952,-167.782"/>
<polygon fill="black" stroke="black" points="305.263,-168.95 306.122,-158.39 298.865,-166.109 305.263,-168.95"/>
<text text-anchor="middle" x="308" y="-181.99" font-family="Times,serif" font-size="14.00">No</text>
</g>
<!-- no3 -->
<g id="node7" class="node"><title>no3</title>
<ellipse fill="red" stroke="red" cx="100" cy="-27.2976" rx="27.0966" ry="27.0966"/>
<text text-anchor="middle" x="100" y="-23.5976" font-family="Times,serif" font-size="14.00">No </text>
</g>
<!-- q3&#45;&gt;no3 -->
<g id="edge6" class="edge"><title>q3&#45;&gt;no3</title>
<path fill="none" stroke="black" d="M130.055,-114.786C125.214,-100.854 118.219,-80.7262 112.196,-63.3926"/>
<polygon fill="black" stroke="black" points="115.374,-61.8747 108.785,-53.5777 108.762,-64.1725 115.374,-61.8747"/>
<text text-anchor="middle" x="133.5" y="-76.3952" font-family="Times,serif" font-size="14.00">Yes</text>
</g>
<!-- yes -->
<g id="node8" class="node"><title>yes</title>
<ellipse fill="lightgreen" stroke="lightgreen" cx="172" cy="-27.2976" rx="26.7961" ry="26.7961"/>
<text text-anchor="middle" x="172" y="-23.5976" font-family="Times,serif" font-size="14.00">Yes</text>
</g>
<!-- q3&#45;&gt;yes -->
<g id="edge7" class="edge"><title>q3&#45;&gt;yes</title>
<path fill="none" stroke="black" d="M141.945,-114.786C146.853,-100.662 153.974,-80.1698 160.053,-62.6769"/>
<polygon fill="black" stroke="black" points="163.511,-63.3897 163.487,-52.7949 156.898,-61.0919 163.511,-63.3897"/>
<text text-anchor="middle" x="168" y="-76.3952" font-family="Times,serif" font-size="14.00">No</text>
</g>
</g>
</svg>
