<?xml version="1.0" encoding="UTF-8" standalone="no"?>
<!DOCTYPE svg PUBLIC "-//W3C//DTD SVG 1.1//EN"
 "http://www.w3.org/Graphics/SVG/1.1/DTD/svg11.dtd">
<!-- Generated by graphviz version 2.38.0 (20140413.2041)
 -->
<!-- Title: %3 Pages: 1 -->
<svg width="247pt" height="376pt"
 viewBox="0.00 0.00 246.85 375.96" xmlns="http://www.w3.org/2000/svg" xmlns:xlink="http://www.w3.org/1999/xlink">
<g id="graph0" class="graph" transform="scale(1 1) rotate(0) translate(4 371.96)">
<title>%3</title>
<polygon fill="white" stroke="none" points="-4,4 -4,-371.96 242.853,-371.96 242.853,4 -4,4"/>
<!-- x &gt; 4?
[15, 15] -->
<g id="node1" class="node"><title>x &gt; 4?
[15, 15]</title>
<ellipse fill="none" stroke="black" cx="85.1838" cy="-341.09" rx="50.8235" ry="26.7407"/>
<text text-anchor="middle" x="85.1838" y="-344.89" font-family="Times,serif" font-size="14.00">x &gt; 4?</text>
<text text-anchor="middle" x="85.1838" y="-329.89" font-family="Times,serif" font-size="14.00">[15, 15]</text>
</g>
<!-- blue
[11, 0] -->
<g id="node2" class="node"><title>blue
[11, 0]</title>
<ellipse fill="none" stroke="black" cx="47.1838" cy="-236.35" rx="44.5955" ry="26.7407"/>
<text text-anchor="middle" x="47.1838" y="-240.15" font-family="Times,serif" font-size="14.00">blue</text>
<text text-anchor="middle" x="47.1838" y="-225.15" font-family="Times,serif" font-size="14.00">[11, 0]</text>
</g>
<!-- x &gt; 4?
[15, 15]&#45;&gt;blue
[11, 0] -->
<g id="edge1" class="edge"><title>x &gt; 4?
[15, 15]&#45;&gt;blue
[11, 0]</title>
<path fill="none" stroke="black" d="M75.6928,-314.43C70.9874,-301.708 65.2336,-286.151 60.1304,-272.354"/>
<polygon fill="black" stroke="black" points="63.3055,-270.849 56.5538,-262.684 56.7402,-273.277 63.3055,-270.849"/>
<text text-anchor="middle" x="80.1838" y="-285.02" font-family="Times,serif" font-size="14.00">No</text>
</g>
<!-- x &gt; 8?
[4, 15] -->
<g id="node3" class="node"><title>x &gt; 8?
[4, 15]</title>
<ellipse fill="none" stroke="black" cx="154.184" cy="-236.35" rx="44.5955" ry="26.7407"/>
<text text-anchor="middle" x="154.184" y="-240.15" font-family="Times,serif" font-size="14.00">x &gt; 8?</text>
<text text-anchor="middle" x="154.184" y="-225.15" font-family="Times,serif" font-size="14.00">[4, 15]</text>
</g>
<!-- x &gt; 4?
[15, 15]&#45;&gt;x &gt; 8?
[4, 15] -->
<g id="edge2" class="edge"><title>x &gt; 4?
[15, 15]&#45;&gt;x &gt; 8?
[4, 15]</title>
<path fill="none" stroke="black" d="M101.711,-315.482C110.91,-301.785 122.473,-284.567 132.402,-269.783"/>
<polygon fill="black" stroke="black" points="135.36,-271.657 138.029,-261.404 129.549,-267.754 135.36,-271.657"/>
<text text-anchor="middle" x="136.684" y="-285.02" font-family="Times,serif" font-size="14.00">Yes</text>
</g>
<!-- y &gt; 2?
[4, 4] -->
<g id="node4" class="node"><title>y &gt; 2?
[4, 4]</title>
<ellipse fill="none" stroke="black" cx="83.1838" cy="-131.61" rx="43.6818" ry="26.7407"/>
<text text-anchor="middle" x="83.1838" y="-135.41" font-family="Times,serif" font-size="14.00">y &gt; 2?</text>
<text text-anchor="middle" x="83.1838" y="-120.41" font-family="Times,serif" font-size="14.00">[4, 4]</text>
</g>
<!-- x &gt; 8?
[4, 15]&#45;&gt;y &gt; 2?
[4, 4] -->
<g id="edge3" class="edge"><title>x &gt; 8?
[4, 15]&#45;&gt;y &gt; 2?
[4, 4]</title>
<path fill="none" stroke="black" d="M137.537,-211.262C128.012,-197.479 115.936,-180.005 105.587,-165.029"/>
<polygon fill="black" stroke="black" points="108.29,-162.784 99.7258,-156.547 102.532,-166.764 108.29,-162.784"/>
<text text-anchor="middle" x="134.184" y="-180.28" font-family="Times,serif" font-size="14.00">No</text>
</g>
<!-- orange
[0, 11] -->
<g id="node5" class="node"><title>orange
[0, 11]</title>
<ellipse fill="none" stroke="black" cx="192.184" cy="-131.61" rx="46.8387" ry="26.7407"/>
<text text-anchor="middle" x="192.184" y="-135.41" font-family="Times,serif" font-size="14.00">orange</text>
<text text-anchor="middle" x="192.184" y="-120.41" font-family="Times,serif" font-size="14.00">[0, 11]</text>
</g>
<!-- x &gt; 8?
[4, 15]&#45;&gt;orange
[0, 11] -->
<g id="edge4" class="edge"><title>x &gt; 8?
[4, 15]&#45;&gt;orange
[0, 11]</title>
<path fill="none" stroke="black" d="M163.577,-209.954C168.281,-197.235 174.052,-181.633 179.175,-167.781"/>
<polygon fill="black" stroke="black" points="182.58,-168.664 182.767,-158.071 176.015,-166.235 182.58,-168.664"/>
<text text-anchor="middle" x="187.684" y="-180.28" font-family="Times,serif" font-size="14.00">Yes</text>
</g>
<!-- blue
[3, 0] -->
<g id="node6" class="node"><title>blue
[3, 0]</title>
<ellipse fill="none" stroke="black" cx="38.1838" cy="-26.8701" rx="38.3684" ry="26.7407"/>
<text text-anchor="middle" x="38.1838" y="-30.6701" font-family="Times,serif" font-size="14.00">blue</text>
<text text-anchor="middle" x="38.1838" y="-15.6701" font-family="Times,serif" font-size="14.00">[3, 0]</text>
</g>
<!-- y &gt; 2?
[4, 4]&#45;&gt;blue
[3, 0] -->
<g id="edge5" class="edge"><title>y &gt; 2?
[4, 4]&#45;&gt;blue
[3, 0]</title>
<path fill="none" stroke="black" d="M72.1755,-105.477C66.4674,-92.4448 59.4104,-76.333 53.2084,-62.173"/>
<polygon fill="black" stroke="black" points="56.2964,-60.4993 49.0784,-52.7436 49.8845,-63.3078 56.2964,-60.4993"/>
<text text-anchor="middle" x="75.1838" y="-75.5401" font-family="Times,serif" font-size="14.00">No</text>
</g>
<!-- [1, 4] -->
<g id="node7" class="node"><title>[1, 4]</title>
<ellipse fill="none" stroke="black" cx="129.184" cy="-26.8701" rx="35.194" ry="18"/>
<text text-anchor="middle" x="129.184" y="-23.1701" font-family="Times,serif" font-size="14.00">[1, 4]</text>
</g>
<!-- y &gt; 2?
[4, 4]&#45;&gt;[1, 4] -->
<g id="edge6" class="edge"><title>y &gt; 2?
[4, 4]&#45;&gt;[1, 4]</title>
<path fill="none" stroke="black" d="M94.4366,-105.477C101.441,-89.8328 110.432,-69.7507 117.514,-53.9346"/>
<polygon fill="black" stroke="black" points="120.749,-55.2732 121.641,-44.716 114.36,-52.4127 120.749,-55.2732"/>
<text text-anchor="middle" x="121.684" y="-75.5401" font-family="Times,serif" font-size="14.00">Yes</text>
</g>
</g>
</svg>
