<?xml version="1.0" encoding="UTF-8" standalone="no"?>
<!DOCTYPE svg PUBLIC "-//W3C//DTD SVG 1.1//EN"
 "http://www.w3.org/Graphics/SVG/1.1/DTD/svg11.dtd">
<!-- Generated by graphviz version 2.38.0 (20140413.2041)
 -->
<!-- Title: %3 Pages: 1 -->
<svg width="507pt" height="376pt"
 viewBox="0.00 0.00 506.55 375.96" xmlns="http://www.w3.org/2000/svg" xmlns:xlink="http://www.w3.org/1999/xlink">
<g id="graph0" class="graph" transform="scale(1 1) rotate(0) translate(4 371.96)">
<title>%3</title>
<polygon fill="white" stroke="none" points="-4,4 -4,-371.96 502.555,-371.96 502.555,4 -4,4"/>
<!-- x &gt; 5?
[20, 20] -->
<g id="node1" class="node"><title>x &gt; 5?
[20, 20]</title>
<ellipse fill="none" stroke="black" cx="198.184" cy="-341.09" rx="50.8235" ry="26.7407"/>
<text text-anchor="middle" x="198.184" y="-344.89" font-family="Times,serif" font-size="14.00">x &gt; 5?</text>
<text text-anchor="middle" x="198.184" y="-329.89" font-family="Times,serif" font-size="14.00">[20, 20]</text>
</g>
<!-- blue
[15, 0] -->
<g id="node2" class="node"><title>blue
[15, 0]</title>
<ellipse fill="none" stroke="black" cx="160.184" cy="-236.35" rx="44.5955" ry="26.7407"/>
<text text-anchor="middle" x="160.184" y="-240.15" font-family="Times,serif" font-size="14.00">blue</text>
<text text-anchor="middle" x="160.184" y="-225.15" font-family="Times,serif" font-size="14.00">[15, 0]</text>
</g>
<!-- x &gt; 5?
[20, 20]&#45;&gt;blue
[15, 0] -->
<g id="edge1" class="edge"><title>x &gt; 5?
[20, 20]&#45;&gt;blue
[15, 0]</title>
<path fill="none" stroke="black" d="M188.693,-314.43C183.987,-301.708 178.234,-286.151 173.13,-272.354"/>
<polygon fill="black" stroke="black" points="176.305,-270.849 169.554,-262.684 169.74,-273.277 176.305,-270.849"/>
<text text-anchor="middle" x="193.184" y="-285.02" font-family="Times,serif" font-size="14.00">No</text>
</g>
<!-- y &gt; 3?
[5, 20] -->
<g id="node3" class="node"><title>y &gt; 3?
[5, 20]</title>
<ellipse fill="none" stroke="black" cx="267.184" cy="-236.35" rx="44.5955" ry="26.7407"/>
<text text-anchor="middle" x="267.184" y="-240.15" font-family="Times,serif" font-size="14.00">y &gt; 3?</text>
<text text-anchor="middle" x="267.184" y="-225.15" font-family="Times,serif" font-size="14.00">[5, 20]</text>
</g>
<!-- x &gt; 5?
[20, 20]&#45;&gt;y &gt; 3?
[5, 20] -->
<g id="edge2" class="edge"><title>x &gt; 5?
[20, 20]&#45;&gt;y &gt; 3?
[5, 20]</title>
<path fill="none" stroke="black" d="M214.711,-315.482C223.91,-301.785 235.473,-284.567 245.402,-269.783"/>
<polygon fill="black" stroke="black" points="248.36,-271.657 251.029,-261.404 242.549,-267.754 248.36,-271.657"/>
<text text-anchor="middle" x="249.684" y="-285.02" font-family="Times,serif" font-size="14.00">Yes</text>
</g>
<!-- x &gt; 9?
[4, 6] -->
<g id="node4" class="node"><title>x &gt; 9?
[4, 6]</title>
<ellipse fill="none" stroke="black" cx="141.184" cy="-131.61" rx="43.6818" ry="26.7407"/>
<text text-anchor="middle" x="141.184" y="-135.41" font-family="Times,serif" font-size="14.00">x &gt; 9?</text>
<text text-anchor="middle" x="141.184" y="-120.41" font-family="Times,serif" font-size="14.00">[4, 6]</text>
</g>
<!-- y &gt; 3?
[5, 20]&#45;&gt;x &gt; 9?
[4, 6] -->
<g id="edge3" class="edge"><title>y &gt; 3?
[5, 20]&#45;&gt;x &gt; 9?
[4, 6]</title>
<path fill="none" stroke="black" d="M241.382,-214.311C222.186,-198.66 195.813,-177.155 174.942,-160.137"/>
<polygon fill="black" stroke="black" points="176.913,-157.228 166.951,-153.621 172.49,-162.653 176.913,-157.228"/>
<text text-anchor="middle" x="223.184" y="-180.28" font-family="Times,serif" font-size="14.00">No</text>
</g>
<!-- almost orange
[1, 14] -->
<g id="node5" class="node"><title>almost orange
[1, 14]</title>
<ellipse fill="none" stroke="black" cx="331.184" cy="-131.61" rx="84.2917" ry="26.7407"/>
<text text-anchor="middle" x="331.184" y="-135.41" font-family="Times,serif" font-size="14.00">almost orange</text>
<text text-anchor="middle" x="331.184" y="-120.41" font-family="Times,serif" font-size="14.00">[1, 14]</text>
</g>
<!-- y &gt; 3?
[5, 20]&#45;&gt;almost orange
[1, 14] -->
<g id="edge4" class="edge"><title>y &gt; 3?
[5, 20]&#45;&gt;almost orange
[1, 14]</title>
<path fill="none" stroke="black" d="M282.351,-211.002C290.555,-197.833 300.822,-181.351 309.822,-166.903"/>
<polygon fill="black" stroke="black" points="312.916,-168.556 315.232,-158.217 306.974,-164.854 312.916,-168.556"/>
<text text-anchor="middle" x="314.684" y="-180.28" font-family="Times,serif" font-size="14.00">Yes</text>
</g>
<!-- blue
[4, 0] -->
<g id="node6" class="node"><title>blue
[4, 0]</title>
<ellipse fill="none" stroke="black" cx="38.1838" cy="-26.8701" rx="38.3684" ry="26.7407"/>
<text text-anchor="middle" x="38.1838" y="-30.6701" font-family="Times,serif" font-size="14.00">blue</text>
<text text-anchor="middle" x="38.1838" y="-15.6701" font-family="Times,serif" font-size="14.00">[4, 0]</text>
</g>
<!-- x &gt; 9?
[4, 6]&#45;&gt;blue
[4, 0] -->
<g id="edge5" class="edge"><title>x &gt; 9?
[4, 6]&#45;&gt;blue
[4, 0]</title>
<path fill="none" stroke="black" d="M118.834,-108.317C103.647,-93.1682 83.4168,-72.9889 67.0173,-56.6308"/>
<polygon fill="black" stroke="black" points="69.3356,-53.9997 59.7838,-49.4156 64.3921,-58.9557 69.3356,-53.9997"/>
<text text-anchor="middle" x="107.184" y="-75.5401" font-family="Times,serif" font-size="14.00">No</text>
</g>
<!-- orange
[0, 6] -->
<g id="node7" class="node"><title>orange
[0, 6]</title>
<ellipse fill="none" stroke="black" cx="141.184" cy="-26.8701" rx="46.8387" ry="26.7407"/>
<text text-anchor="middle" x="141.184" y="-30.6701" font-family="Times,serif" font-size="14.00">orange</text>
<text text-anchor="middle" x="141.184" y="-15.6701" font-family="Times,serif" font-size="14.00">[0, 6]</text>
</g>
<!-- x &gt; 9?
[4, 6]&#45;&gt;orange
[0, 6] -->
<g id="edge6" class="edge"><title>x &gt; 9?
[4, 6]&#45;&gt;orange
[0, 6]</title>
<path fill="none" stroke="black" d="M141.184,-104.685C141.184,-92.3951 141.184,-77.5066 141.184,-64.1214"/>
<polygon fill="black" stroke="black" points="144.684,-63.7874 141.184,-53.7874 137.684,-63.7875 144.684,-63.7874"/>
<text text-anchor="middle" x="153.684" y="-75.5401" font-family="Times,serif" font-size="14.00">Yes</text>
</g>
<!-- Should we continue?
Or would it be overfitting? -->
<g id="node8" class="node"><title>Should we continue?
Or would it be overfitting?</title>
<ellipse fill="none" stroke="black" cx="352.184" cy="-26.8701" rx="146.242" ry="26.7407"/>
<text text-anchor="middle" x="352.184" y="-30.6701" font-family="Times,serif" font-size="14.00">Should we continue?</text>
<text text-anchor="middle" x="352.184" y="-15.6701" font-family="Times,serif" font-size="14.00">Or would it be overfitting?</text>
</g>
<!-- almost orange
[1, 14]&#45;&gt;Should we continue?
Or would it be overfitting? -->
<g id="edge7" class="edge"><title>almost orange
[1, 14]&#45;&gt;Should we continue?
Or would it be overfitting?</title>
<path fill="none" stroke="black" d="M336.483,-104.685C339.02,-92.2735 342.098,-77.2115 344.855,-63.7243"/>
<polygon fill="black" stroke="black" points="348.313,-64.2858 346.886,-53.7874 341.455,-62.8839 348.313,-64.2858"/>
</g>
</g>
</svg>
