<?xml version="1.0" encoding="UTF-8" standalone="no"?>
<!DOCTYPE svg PUBLIC "-//W3C//DTD SVG 1.1//EN"
 "http://www.w3.org/Graphics/SVG/1.1/DTD/svg11.dtd">
<!-- Generated by graphviz version 2.38.0 (20140413.2041)
 -->
<!-- Title: %3 Pages: 1 -->
<svg width="291pt" height="188pt"
 viewBox="0.00 0.00 290.79 188.00" xmlns="http://www.w3.org/2000/svg" xmlns:xlink="http://www.w3.org/1999/xlink">
<g id="graph0" class="graph" transform="scale(1 1) rotate(0) translate(4 184)">
<title>%3</title>
<polygon fill="white" stroke="none" points="-4,4 -4,-184 286.794,-184 286.794,4 -4,4"/>
<!-- outlook -->
<g id="node1" class="node"><title>outlook</title>
<ellipse fill="none" stroke="black" cx="145.347" cy="-162" rx="45.4919" ry="18"/>
<text text-anchor="middle" x="145.347" y="-158.3" font-family="Times,serif" font-size="14.00">outlook</text>
</g>
<!-- sunny -->
<g id="node2" class="node"><title>sunny</title>
<ellipse fill="none" stroke="black" cx="38.3466" cy="-90" rx="38.1938" ry="18"/>
<text text-anchor="middle" x="38.3466" y="-86.3" font-family="Times,serif" font-size="14.00">sunny</text>
</g>
<!-- outlook&#45;&gt;sunny -->
<g id="edge1" class="edge"><title>outlook&#45;&gt;sunny</title>
<path fill="none" stroke="black" d="M122.916,-146.326C107.156,-136.016 85.892,-122.104 68.6291,-110.811"/>
<polygon fill="black" stroke="black" points="70.3012,-107.722 60.0168,-105.177 66.469,-113.58 70.3012,-107.722"/>
</g>
<!-- overcast -->
<g id="node3" class="node"><title>overcast</title>
<ellipse fill="none" stroke="black" cx="145.347" cy="-90" rx="50.8918" ry="18"/>
<text text-anchor="middle" x="145.347" y="-86.3" font-family="Times,serif" font-size="14.00">overcast</text>
</g>
<!-- outlook&#45;&gt;overcast -->
<g id="edge2" class="edge"><title>outlook&#45;&gt;overcast</title>
<path fill="none" stroke="black" d="M145.347,-143.697C145.347,-135.983 145.347,-126.712 145.347,-118.112"/>
<polygon fill="black" stroke="black" points="148.847,-118.104 145.347,-108.104 141.847,-118.104 148.847,-118.104"/>
</g>
<!-- rainy -->
<g id="node4" class="node"><title>rainy</title>
<ellipse fill="none" stroke="black" cx="248.347" cy="-90" rx="34.394" ry="18"/>
<text text-anchor="middle" x="248.347" y="-86.3" font-family="Times,serif" font-size="14.00">rainy</text>
</g>
<!-- outlook&#45;&gt;rainy -->
<g id="edge3" class="edge"><title>outlook&#45;&gt;rainy</title>
<path fill="none" stroke="black" d="M167.19,-146.155C182.578,-135.697 203.324,-121.598 219.989,-110.272"/>
<polygon fill="black" stroke="black" points="221.977,-113.153 228.281,-104.637 218.043,-107.363 221.977,-113.153"/>
</g>
<!-- yes -->
<g id="node5" class="node"><title>yes</title>
<ellipse fill="none" stroke="black" cx="145.347" cy="-18" rx="27" ry="18"/>
<text text-anchor="middle" x="145.347" y="-14.3" font-family="Times,serif" font-size="14.00">yes</text>
</g>
<!-- overcast&#45;&gt;yes -->
<g id="edge4" class="edge"><title>overcast&#45;&gt;yes</title>
<path fill="none" stroke="black" d="M145.347,-71.6966C145.347,-63.9827 145.347,-54.7125 145.347,-46.1124"/>
<polygon fill="black" stroke="black" points="148.847,-46.1043 145.347,-36.1043 141.847,-46.1044 148.847,-46.1043"/>
</g>
</g>
</svg>
