<?xml version="1.0" encoding="UTF-8" standalone="no"?>
<!DOCTYPE svg PUBLIC "-//W3C//DTD SVG 1.1//EN"
 "http://www.w3.org/Graphics/SVG/1.1/DTD/svg11.dtd">
<!-- Generated by graphviz version 2.38.0 (20140413.2041)
 -->
<!-- Title: %3 Pages: 1 -->
<svg width="253pt" height="376pt"
 viewBox="0.00 0.00 252.85 375.96" xmlns="http://www.w3.org/2000/svg" xmlns:xlink="http://www.w3.org/1999/xlink">
<g id="graph0" class="graph" transform="scale(1 1) rotate(0) translate(4 371.96)">
<title>%3</title>
<polygon fill="white" stroke="none" points="-4,4 -4,-371.96 248.853,-371.96 248.853,4 -4,4"/>
<!-- x &gt; 4?
[15, 15] -->
<g id="node1" class="node"><title>x &gt; 4?
[15, 15]</title>
<ellipse fill="none" stroke="black" cx="91.1838" cy="-341.09" rx="50.8235" ry="26.7407"/>
<text text-anchor="middle" x="91.1838" y="-344.89" font-family="Times,serif" font-size="14.00">x &gt; 4?</text>
<text text-anchor="middle" x="91.1838" y="-329.89" font-family="Times,serif" font-size="14.00">[15, 15]</text>
</g>
<!-- blue
[11, 0] -->
<g id="node2" class="node"><title>blue
[11, 0]</title>
<ellipse fill="none" stroke="black" cx="53.1838" cy="-236.35" rx="44.5955" ry="26.7407"/>
<text text-anchor="middle" x="53.1838" y="-240.15" font-family="Times,serif" font-size="14.00">blue</text>
<text text-anchor="middle" x="53.1838" y="-225.15" font-family="Times,serif" font-size="14.00">[11, 0]</text>
</g>
<!-- x &gt; 4?
[15, 15]&#45;&gt;blue
[11, 0] -->
<g id="edge1" class="edge"><title>x &gt; 4?
[15, 15]&#45;&gt;blue
[11, 0]</title>
<path fill="none" stroke="black" d="M81.6928,-314.43C76.9874,-301.708 71.2336,-286.151 66.1304,-272.354"/>
<polygon fill="black" stroke="black" points="69.3055,-270.849 62.5538,-262.684 62.7402,-273.277 69.3055,-270.849"/>
<text text-anchor="middle" x="86.1838" y="-285.02" font-family="Times,serif" font-size="14.00">No</text>
</g>
<!-- x &gt; 8?
[4, 15] -->
<g id="node3" class="node"><title>x &gt; 8?
[4, 15]</title>
<ellipse fill="none" stroke="black" cx="160.184" cy="-236.35" rx="44.5955" ry="26.7407"/>
<text text-anchor="middle" x="160.184" y="-240.15" font-family="Times,serif" font-size="14.00">x &gt; 8?</text>
<text text-anchor="middle" x="160.184" y="-225.15" font-family="Times,serif" font-size="14.00">[4, 15]</text>
</g>
<!-- x &gt; 4?
[15, 15]&#45;&gt;x &gt; 8?
[4, 15] -->
<g id="edge2" class="edge"><title>x &gt; 4?
[15, 15]&#45;&gt;x &gt; 8?
[4, 15]</title>
<path fill="none" stroke="black" d="M107.711,-315.482C116.91,-301.785 128.473,-284.567 138.402,-269.783"/>
<polygon fill="black" stroke="black" points="141.36,-271.657 144.029,-261.404 135.549,-267.754 141.36,-271.657"/>
<text text-anchor="middle" x="142.684" y="-285.02" font-family="Times,serif" font-size="14.00">Yes</text>
</g>
<!-- y &gt; 2?
[4, 4] -->
<g id="node4" class="node"><title>y &gt; 2?
[4, 4]</title>
<ellipse fill="none" stroke="black" cx="89.1838" cy="-131.61" rx="43.6818" ry="26.7407"/>
<text text-anchor="middle" x="89.1838" y="-135.41" font-family="Times,serif" font-size="14.00">y &gt; 2?</text>
<text text-anchor="middle" x="89.1838" y="-120.41" font-family="Times,serif" font-size="14.00">[4, 4]</text>
</g>
<!-- x &gt; 8?
[4, 15]&#45;&gt;y &gt; 2?
[4, 4] -->
<g id="edge3" class="edge"><title>x &gt; 8?
[4, 15]&#45;&gt;y &gt; 2?
[4, 4]</title>
<path fill="none" stroke="black" d="M143.537,-211.262C134.012,-197.479 121.936,-180.005 111.587,-165.029"/>
<polygon fill="black" stroke="black" points="114.29,-162.784 105.726,-156.547 108.532,-166.764 114.29,-162.784"/>
<text text-anchor="middle" x="140.184" y="-180.28" font-family="Times,serif" font-size="14.00">No</text>
</g>
<!-- orange
[0, 11] -->
<g id="node5" class="node"><title>orange
[0, 11]</title>
<ellipse fill="none" stroke="black" cx="198.184" cy="-131.61" rx="46.8387" ry="26.7407"/>
<text text-anchor="middle" x="198.184" y="-135.41" font-family="Times,serif" font-size="14.00">orange</text>
<text text-anchor="middle" x="198.184" y="-120.41" font-family="Times,serif" font-size="14.00">[0, 11]</text>
</g>
<!-- x &gt; 8?
[4, 15]&#45;&gt;orange
[0, 11] -->
<g id="edge4" class="edge"><title>x &gt; 8?
[4, 15]&#45;&gt;orange
[0, 11]</title>
<path fill="none" stroke="black" d="M169.577,-209.954C174.281,-197.235 180.052,-181.633 185.175,-167.781"/>
<polygon fill="black" stroke="black" points="188.58,-168.664 188.767,-158.071 182.015,-166.235 188.58,-168.664"/>
<text text-anchor="middle" x="193.684" y="-180.28" font-family="Times,serif" font-size="14.00">Yes</text>
</g>
<!-- blue
[3, 0] -->
<g id="node6" class="node"><title>blue
[3, 0]</title>
<ellipse fill="none" stroke="black" cx="38.1838" cy="-26.8701" rx="38.3684" ry="26.7407"/>
<text text-anchor="middle" x="38.1838" y="-30.6701" font-family="Times,serif" font-size="14.00">blue</text>
<text text-anchor="middle" x="38.1838" y="-15.6701" font-family="Times,serif" font-size="14.00">[3, 0]</text>
</g>
<!-- y &gt; 2?
[4, 4]&#45;&gt;blue
[3, 0] -->
<g id="edge5" class="edge"><title>y &gt; 2?
[4, 4]&#45;&gt;blue
[3, 0]</title>
<path fill="none" stroke="black" d="M76.8381,-105.74C70.2604,-92.4889 62.0748,-75.9987 54.9318,-61.6091"/>
<polygon fill="black" stroke="black" points="57.9971,-59.9125 50.4158,-52.5115 51.7271,-63.0249 57.9971,-59.9125"/>
<text text-anchor="middle" x="78.1838" y="-75.5401" font-family="Times,serif" font-size="14.00">No</text>
</g>
<!-- orange
[1, 4] -->
<g id="node7" class="node"><title>orange
[1, 4]</title>
<ellipse fill="none" stroke="black" cx="141.184" cy="-26.8701" rx="46.8387" ry="26.7407"/>
<text text-anchor="middle" x="141.184" y="-30.6701" font-family="Times,serif" font-size="14.00">orange</text>
<text text-anchor="middle" x="141.184" y="-15.6701" font-family="Times,serif" font-size="14.00">[1, 4]</text>
</g>
<!-- y &gt; 2?
[4, 4]&#45;&gt;orange
[1, 4] -->
<g id="edge6" class="edge"><title>y &gt; 2?
[4, 4]&#45;&gt;orange
[1, 4]</title>
<path fill="none" stroke="black" d="M101.772,-105.74C108.429,-92.5863 116.702,-76.2411 123.947,-61.9269"/>
<polygon fill="black" stroke="black" points="127.139,-63.3705 128.532,-52.8676 120.893,-60.2094 127.139,-63.3705"/>
<text text-anchor="middle" x="131.684" y="-75.5401" font-family="Times,serif" font-size="14.00">Yes</text>
</g>
</g>
</svg>
